<svg version="1.1" viewBox="0.0 0.0 960.0 336.0" fill="none" stroke="none" stroke-linecap="square" stroke-miterlimit="10" xmlns:xlink="http://www.w3.org/1999/xlink" xmlns="http://www.w3.org/2000/svg"><clipPath id="ge32e57e063_0_1.0"><path d="m0 0l960.0 0l0 336.0l-960.0 0l0 -336.0z" clip-rule="nonzero"/></clipPath><g clip-path="url(#ge32e57e063_0_1.0)"><path fill="#000000" fill-opacity="0.0" d="m0 0l960.0 0l0 336.0l-960.0 0z" fill-rule="evenodd"/><path fill="#000000" fill-opacity="0.0" d="m0 0l960.0 0l0 336.0l-960.0 0z" fill-rule="evenodd"/><path fill="#000000" fill-opacity="0.0" d="m26.486877 14.218338l265.1921 0l0 211.28703l-265.1921 0l0 -211.28703z" fill-rule="nonzero"/><path fill="#3d85c6" d="m80.73688 184.07812q-14.390625 0 -27.828125 -3.890625q-13.421875 -3.90625 -21.5625 -10.140625l9.53125 -21.15625q7.796875 5.71875 18.53125 9.1875q10.75 3.46875 21.5 3.46875q11.96875 0 17.6875 -3.546875q5.71875 -3.5625 5.71875 -9.453125q0 -4.328125 -3.390625 -7.1875q-3.375 -2.859375 -8.671875 -4.59375q-5.28125 -1.734375 -14.28125 -3.8125q-13.875 -3.296875 -22.71875 -6.59375q-8.828125 -3.296875 -15.15625 -10.5625q-6.328125 -7.28125 -6.328125 -19.421875q0 -10.578125 5.71875 -19.15625q5.71875 -8.578125 17.234375 -13.59375q11.53125 -5.03125 28.171875 -5.03125q11.625 0 22.703125 2.78125q11.09375 2.765625 19.421875 7.96875l-8.671875 21.3125q-16.8125 -9.53125 -33.625 -9.53125q-11.78125 0 -17.421875 3.8125q-5.625 3.8125 -5.625 10.046875q0 6.25 6.5 9.28125q6.5 3.03125 19.84375 5.96875q13.859375 3.296875 22.703125 6.59375q8.84375 3.296875 15.171875 10.40625q6.328125 7.09375 6.328125 19.234375q0 10.40625 -5.8125 18.984375q-5.796875 8.578125 -17.421875 13.609375q-11.609375 5.015625 -28.25 5.015625zm113.88025 -0.6875q-14.90625 0 -26.78125 -6.15625q-11.875 -6.15625 -18.546875 -17.078125q-6.671875 -10.921875 -6.671875 -24.78125q0 -13.859375 6.671875 -24.78125q6.671875 -10.921875 18.546875 -17.078125q11.875 -6.15625 26.78125 -6.15625q14.734375 0 25.734375 6.15625q11.015625 6.15625 16.03125 17.59375l-20.96875 11.265625q-7.28125 -12.828125 -20.96875 -12.828125q-10.578125 0 -17.515625 6.9375q-6.921875 6.9375 -6.921875 18.890625q0 11.953125 6.921875 18.890625q6.9375 6.9375 17.515625 6.9375q13.859375 0 20.96875 -12.828125l20.96875 11.4375q-5.015625 11.09375 -16.03125 17.34375q-11.0 6.234375 -25.734375 6.234375zm57.37445 -94.640625l27.03125 0l0 93.25l-27.03125 0l0 -93.25zm13.515625 -13.0q-7.453125 0 -12.140625 -4.328125q-4.671875 -4.34375 -4.671875 -10.75q0 -6.421875 4.671875 -10.75q4.6875 -4.328125 12.140625 -4.328125q7.453125 0 12.125 4.15625q4.6875 4.15625 4.6875 10.40625q0 6.75 -4.6875 11.171875q-4.671875 4.421875 -12.125 4.421875z" fill-rule="nonzero"/><path fill="#000000" d="m423.58524 87.359375q17.5 0 27.8125 10.3125q10.3125 10.3125 10.3125 30.9375l0 53.390625l-27.03125 0l0 -49.21875q0 -11.09375 -4.59375 -16.546875q-4.59375 -5.46875 -13.09375 -5.46875q-9.53125 0 -15.078125 6.15625q-5.546875 6.140625 -5.546875 18.28125l0 46.796875l-27.03125 0l0 -49.21875q0 -22.015625 -17.6875 -22.015625q-9.359375 0 -14.90625 6.15625q-5.546875 6.140625 -5.546875 18.28125l0 46.796875l-27.03125 0l0 -93.25l25.828125 0l0 10.75q5.1875 -5.890625 12.71875 -9.015625q7.546875 -3.125 16.5625 -3.125q9.890625 0 17.859375 3.90625q7.96875 3.890625 12.828125 11.34375q5.71875 -7.28125 14.46875 -11.265625q8.75 -3.984375 19.15625 -3.984375zm156.33688 1.390625l0 93.25l-25.65625 0l0 -11.09375q-5.375 6.0625 -12.828125 9.28125q-7.453125 3.203125 -16.109375 3.203125q-18.375 0 -29.125 -10.578125q-10.75 -10.578125 -10.75 -31.375l0 -52.6875l27.046875 0l0 48.703125q0 22.53125 18.890625 22.53125q9.703125 0 15.59375 -6.328125q5.90625 -6.328125 5.90625 -18.796875l0 -46.109375l27.03125 0zm25.138916 -35.359375l27.03125 0l0 128.60938l-27.03125 0l0 -128.60938zm89.78119 33.96875q21.671875 0 33.28125 10.3125q11.609375 10.3125 11.609375 31.109375l0 53.21875l-25.3125 0l0 -11.609375q-7.625 13.0 -28.421875 13.0q-10.75 0 -18.640625 -3.640625q-7.875 -3.640625 -12.046875 -10.046875q-4.15625 -6.421875 -4.15625 -14.5625q0 -13.0 9.796875 -20.453125q9.796875 -7.453125 30.25 -7.453125l21.484375 0q0 -8.84375 -5.375 -13.609375q-5.359375 -4.765625 -16.109375 -4.765625q-7.453125 0 -14.65625 2.34375q-7.1875 2.328125 -12.203125 6.3125l-9.71875 -18.890625q7.625 -5.375 18.28125 -8.3125q10.671875 -2.953125 21.9375 -2.953125zm-2.078125 77.828125q6.921875 0 12.296875 -3.203125q5.375 -3.203125 7.625 -9.453125l0 -9.53125l-18.53125 0q-16.640625 0 -16.640625 10.921875q0 5.203125 4.0625 8.234375q4.078125 3.03125 11.1875 3.03125zm131.55286 12.3125q-3.984375 2.9375 -9.796875 4.421875q-5.796875 1.46875 -12.21875 1.46875q-16.640625 0 -25.75 -8.484375q-9.09375 -8.5 -9.09375 -24.96875l0 -38.3125l-14.375 0l0 -20.796875l14.375 0l0 -22.703125l27.046875 0l0 22.703125l23.21875 0l0 20.796875l-23.21875 0l0 37.96875q0 5.890625 3.03125 9.09375q3.03125 3.203125 8.578125 3.203125q6.421875 0 10.921875 -3.46875l7.28125 19.078125zm103.654236 -41.78125q0 0.515625 -0.53125 7.28125l-70.53125 0q1.90625 8.671875 9.0 13.703125q7.109375 5.015625 17.6875 5.015625q7.28125 0 12.90625 -2.15625q5.640625 -2.171875 10.484375 -6.859375l14.390625 15.609375q-13.171875 15.078125 -38.46875 15.078125q-15.78125 0 -27.921875 -6.15625q-12.125 -6.15625 -18.71875 -17.078125q-6.578125 -10.921875 -6.578125 -24.78125q0 -13.6875 6.5 -24.6875q6.5 -11.015625 17.84375 -17.171875q11.359375 -6.15625 25.40625 -6.15625q13.6875 0 24.78125 5.90625q11.09375 5.890625 17.421875 16.890625q6.328125 11.0 6.328125 25.5625zm-48.359375 -27.90625q-9.1875 0 -15.4375 5.203125q-6.234375 5.203125 -7.625 14.21875l45.9375 0q-1.390625 -8.84375 -7.625 -14.125q-6.234375 -5.296875 -15.25 -5.296875z" fill-rule="nonzero"/><path fill="#3d85c6" d="m26.486877 193.26666l265.1921 0l0 15.600006l-265.1921 0l0 -15.600006z" fill-rule="nonzero"/><path fill="#000000" d="m72.004395 301.52435q-6.296875 0 -12.0625 -2.015625q-5.765625 -2.015625 -8.90625 -5.328125l2.328125 -4.59375q3.0625 3.0625 8.140625 4.96875q5.09375 1.890625 10.5 1.890625q7.578125 0 11.359375 -2.78125q3.796875 -2.78125 3.796875 -7.21875q0 -3.390625 -2.0625 -5.40625q-2.046875 -2.015625 -5.03125 -3.109375q-2.984375 -1.09375 -8.3125 -2.375q-6.375 -1.609375 -10.171875 -3.09375q-3.78125 -1.5 -6.484375 -4.5625q-2.703125 -3.078125 -2.703125 -8.3125q0 -4.28125 2.25 -7.78125q2.265625 -3.515625 6.9375 -5.609375q4.6875 -2.09375 11.625 -2.09375q4.84375 0 9.484375 1.328125q4.640625 1.328125 8.015625 3.671875l-2.015625 4.75q-3.546875 -2.328125 -7.578125 -3.5q-4.03125 -1.171875 -7.90625 -1.171875q-7.421875 0 -11.171875 2.859375q-3.75 2.859375 -3.75 7.375q0 3.390625 2.046875 5.453125q2.0625 2.046875 5.171875 3.140625q3.109375 1.09375 8.34375 2.375q6.21875 1.546875 10.046875 3.046875q3.828125 1.484375 6.484375 4.515625q2.671875 3.015625 2.671875 8.171875q0 4.28125 -2.296875 7.796875q-2.296875 3.5 -7.0625 5.5625q-4.75 2.046875 -11.6875 2.046875zm50.166122 -0.078125q-6.125 0 -11.046875 -2.78125q-4.921875 -2.78125 -7.75 -7.703125q-2.828125 -4.921875 -2.828125 -11.140625q0 -6.203125 2.828125 -11.125q2.828125 -4.921875 7.75 -7.65625q4.921875 -2.75 11.046875 -2.75q6.125 0 11.046875 2.75q4.921875 2.734375 7.703125 7.65625q2.78125 4.921875 2.78125 11.125q0 6.21875 -2.78125 11.140625q-2.78125 4.921875 -7.703125 7.703125q-4.921875 2.78125 -11.046875 2.78125zm0 -5.078125q4.515625 0 8.09375 -2.0625q3.59375 -2.0625 5.609375 -5.84375q2.015625 -3.796875 2.015625 -8.640625q0 -4.828125 -2.015625 -8.625q-2.015625 -3.796875 -5.609375 -5.84375q-3.578125 -2.0625 -8.09375 -2.0625q-4.515625 0 -8.109375 2.0625q-3.59375 2.046875 -5.65625 5.84375q-2.046875 3.796875 -2.046875 8.625q0 4.84375 2.046875 8.640625q2.0625 3.78125 5.65625 5.84375q3.59375 2.0625 8.109375 2.0625zm33.227737 -55.171875l5.734375 0l0 59.84375l-5.734375 0l0 -59.84375zm57.3528 17.421875l-18.875 42.421875l-5.890625 0l-18.796875 -42.421875l5.96875 0l15.890625 36.125l16.046875 -36.125l5.65625 0zm8.0594635 0l5.734375 0l0 42.421875l-5.734375 0l0 -42.421875zm2.890625 -9.28125q-1.765625 0 -2.984375 -1.203125q-1.203125 -1.21875 -1.203125 -2.90625q0 -1.609375 1.203125 -2.8125q1.21875 -1.21875 2.984375 -1.21875q1.78125 0 2.984375 1.171875q1.21875 1.15625 1.21875 2.78125q0 1.765625 -1.21875 2.984375q-1.203125 1.203125 -2.984375 1.203125zm40.415314 8.953125q7.984375 0 12.703125 4.640625q4.71875 4.640625 4.71875 13.515625l0 24.59375l-5.71875 0l0 -24.03125q0 -6.625 -3.3125 -10.078125q-3.296875 -3.46875 -9.4375 -3.46875q-6.84375 0 -10.843765 4.078125q-3.984375 4.0625 -3.984375 11.234375l0 22.265625l-5.734375 0l0 -42.421875l5.484375 0l0 7.828125q2.34375 -3.875 6.484375 -6.015625q4.1562653 -2.140625 9.64064 -2.140625zm72.4375 0.328125l0 37.265625q0 10.796875 -5.28125 16.0q-5.28125 5.203125 -15.9375 5.203125q-5.875 0 -11.171875 -1.734375q-5.28125 -1.734375 -8.578125 -4.796875l2.890625 -4.359375q3.078125 2.75 7.46875 4.28125q4.390625 1.53125 9.234375 1.53125q8.0625 0 11.84375 -3.75q3.796875 -3.75 3.796875 -11.65625l0 -5.40625q-2.65625 4.03125 -6.96875 6.140625q-4.3125 2.09375 -9.5625 2.09375q-5.96875 0 -10.84375 -2.625q-4.875 -2.625 -7.671875 -7.34375q-2.78125 -4.71875 -2.78125 -10.6875q0 -5.96875 2.78125 -10.640625q2.796875 -4.671875 7.625 -7.25q4.84375 -2.59375 10.890625 -2.59375q5.40625 0 9.765625 2.1875q4.359375 2.171875 7.015625 6.28125l0 -8.140625l5.484375 0zm-21.703125 35.734375q4.609375 0 8.3125 -1.96875q3.703125 -1.984375 5.765625 -5.53125q2.0625 -3.5625 2.0625 -8.078125q0 -4.515625 -2.0625 -8.015625q-2.0625 -3.515625 -5.734375 -5.484375q-3.65625 -1.984375 -8.34375 -1.984375q-4.59375 0 -8.265625 1.9375q-3.671875 1.9375 -5.734375 5.484375q-2.046875 3.546875 -2.046875 8.0625q0 4.515625 2.046875 8.078125q2.0625 3.546875 5.734375 5.53125q3.671875 1.96875 8.265625 1.96875zm71.07153 -44.609375l-19.84375 0l0 -5.15625l45.640625 0l0 5.15625l-19.84375 0l0 51.296875l-5.953125 0l0 -51.296875zm55.718567 8.546875q7.984375 0 12.703125 4.640625q4.71875 4.640625 4.71875 13.515625l0 24.59375l-5.71875 0l0 -24.03125q0 -6.625 -3.3125 -10.078125q-3.296875 -3.46875 -9.4375 -3.46875q-6.84375 0 -10.84375 4.078125q-3.984375 4.0625 -3.984375 11.234375l0 22.265625l-5.734375 0l0 -59.84375l5.734375 0l0 24.84375q2.328125 -3.71875 6.4375 -5.734375q4.125 -2.015625 9.4375 -2.015625zm70.09375 23.3125l-35.484375 0q0.484375 6.609375 5.078125 10.6875q4.59375 4.078125 11.609375 4.078125q3.953125 0 7.265625 -1.40625q3.3125 -1.421875 5.734375 -4.171875l3.21875 3.71875q-2.828125 3.390625 -7.0625 5.171875q-4.234375 1.765625 -9.3125 1.765625q-6.53125 0 -11.578125 -2.78125q-5.03125 -2.78125 -7.859375 -7.703125q-2.828125 -4.921875 -2.828125 -11.140625q0 -6.203125 2.703125 -11.125q2.703125 -4.921875 7.421875 -7.65625q4.71875 -2.75 10.609375 -2.75q5.890625 0 10.5625 2.75q4.6875 2.734375 7.34375 7.625q2.65625 4.875 2.65625 11.15625l-0.078125 1.78125zm-20.484375 -18.390625q-6.125 0 -10.28125 3.921875q-4.15625 3.90625 -4.71875 10.1875l30.078125 0q-0.5625 -6.28125 -4.71875 -10.1875q-4.140625 -3.921875 -10.359375 -3.921875zm77.34833 38.3125q-10.96875 0 -17.109375 -6.28125q-6.125 -6.296875 -6.125 -18.3125l0 -32.34375l5.96875 0l0 32.09375q0 9.84375 4.4375 14.6875q4.4375 4.828125 12.828125 4.828125q8.46875 0 12.90625 -4.828125q4.4375 -4.84375 4.4375 -14.6875l0 -32.09375l5.8125 0l0 32.34375q0 12.015625 -6.09375 18.3125q-6.09375 6.28125 -17.0625 6.28125zm61.53601 -43.234375q7.984375 0 12.703125 4.640625q4.71875 4.640625 4.71875 13.515625l0 24.59375l-5.71875 0l0 -24.03125q0 -6.625 -3.3125 -10.078125q-3.296875 -3.46875 -9.4375 -3.46875q-6.84375 0 -10.84375 4.078125q-3.984375 4.0625 -3.984375 11.234375l0 22.265625l-5.734375 0l0 -42.421875l5.484375 0l0 7.828125q2.34375 -3.875 6.484375 -6.015625q4.15625 -2.140625 9.640625 -2.140625zm44.369934 43.15625q-5.15625 0 -9.875 -1.484375q-4.71875 -1.5 -7.390625 -3.765625l2.578125 -4.515625q2.671875 2.09375 6.703125 3.4375q4.03125 1.328125 8.390625 1.328125q5.796875 0 8.578125 -1.8125q2.796875 -1.828125 2.796875 -5.125q0 -2.34375 -1.546875 -3.671875q-1.53125 -1.328125 -3.875 -2.015625q-2.328125 -0.6875 -6.203125 -1.328125q-5.15625 -0.96875 -8.3125 -1.96875q-3.140625 -1.015625 -5.359375 -3.4375q-2.21875 -2.421875 -2.21875 -6.703125q0 -5.3125 4.4375 -8.703125q4.4375 -3.390625 12.34375 -3.390625q4.109375 0 8.21875 1.09375q4.125 1.09375 6.78125 2.859375l-2.5 4.59375q-5.234375 -3.625 -12.5 -3.625q-5.484375 0 -8.265625 1.9375q-2.78125 1.9375 -2.78125 5.078125q0 2.421875 1.5625 3.875q1.578125 1.453125 3.921875 2.140625q2.34375 0.6875 6.453125 1.40625q5.078125 0.96875 8.140625 1.9375q3.0625 0.96875 5.234375 3.3125q2.1875 2.328125 2.1875 6.453125q0 5.5625 -4.640625 8.828125q-4.640625 3.265625 -12.859375 3.265625zm45.409668 0q-6.125 0 -11.046875 -2.78125q-4.921875 -2.78125 -7.75 -7.703125q-2.828125 -4.921875 -2.828125 -11.140625q0 -6.203125 2.828125 -11.125q2.828125 -4.921875 7.75 -7.65625q4.921875 -2.75 11.046875 -2.75q6.125 0 11.046875 2.75q4.921875 2.734375 7.703125 7.65625q2.78125 4.921875 2.78125 11.125q0 6.21875 -2.78125 11.140625q-2.78125 4.921875 -7.703125 7.703125q-4.921875 2.78125 -11.046875 2.78125zm0 -5.078125q4.515625 0 8.09375 -2.0625q3.59375 -2.0625 5.609375 -5.84375q2.015625 -3.796875 2.015625 -8.640625q0 -4.828125 -2.015625 -8.625q-2.015625 -3.796875 -5.609375 -5.84375q-3.578125 -2.0625 -8.09375 -2.0625q-4.515625 0 -8.109375 2.0625q-3.59375 2.046875 -5.65625 5.84375q-2.046875 3.796875 -2.046875 8.625q0 4.84375 2.046875 8.640625q2.0625 3.78125 5.65625 5.84375q3.59375 2.0625 8.109375 2.0625zm33.227722 -55.171875l5.734375 0l0 59.84375l-5.734375 0l0 -59.84375zm57.352783 17.421875l-18.875 42.421875l-5.890625 0l-18.796875 -42.421875l5.96875 0l15.890625 36.125l16.046875 -36.125l5.65625 0zm43.786987 22.984375l-35.484375 0q0.484375 6.609375 5.078125 10.6875q4.59375 4.078125 11.609375 4.078125q3.953125 0 7.265625 -1.40625q3.3125 -1.421875 5.734375 -4.171875l3.21875 3.71875q-2.828125 3.390625 -7.0625 5.171875q-4.234375 1.765625 -9.3125 1.765625q-6.53125 0 -11.578125 -2.78125q-5.03125 -2.78125 -7.859375 -7.703125q-2.828125 -4.921875 -2.828125 -11.140625q0 -6.203125 2.703125 -11.125q2.703125 -4.921875 7.421875 -7.65625q4.71875 -2.75 10.609375 -2.75q5.890625 0 10.5625 2.75q4.6875 2.734375 7.34375 7.625q2.65625 4.875 2.65625 11.15625l-0.078125 1.78125zm-20.484375 -18.390625q-6.125 0 -10.28125 3.921875q-4.15625 3.90625 -4.71875 10.1875l30.078125 0q-0.5625 -6.28125 -4.71875 -10.1875q-4.140625 -3.921875 -10.359375 -3.921875zm70.982056 -22.015625l0 59.84375l-5.484375 0l0 -8.390625q-2.578125 4.28125 -6.8125 6.546875q-4.234375 2.25 -9.5625 2.25q-5.96875 0 -10.8125 -2.734375q-4.84375 -2.75 -7.59375 -7.671875q-2.734375 -4.921875 -2.734375 -11.21875q0 -6.28125 2.734375 -11.203125q2.75 -4.921875 7.59375 -7.625q4.84375 -2.703125 10.8125 -2.703125q5.15625 0 9.3125 2.140625q4.15625 2.140625 6.8125 6.25l0 -25.484375l5.734375 0zm-21.375 55.171875q4.4375 0 8.015625 -2.0625q3.59375 -2.0625 5.640625 -5.84375q2.0625 -3.796875 2.0625 -8.640625q0 -4.828125 -2.0625 -8.625q-2.046875 -3.796875 -5.640625 -5.84375q-3.578125 -2.0625 -8.015625 -2.0625q-4.515625 0 -8.109375 2.0625q-3.59375 2.046875 -5.65625 5.84375q-2.046875 3.796875 -2.046875 8.625q0 4.84375 2.046875 8.640625q2.0625 3.78125 5.65625 5.84375q3.59375 2.0625 8.109375 2.0625z" fill-rule="nonzero"/></g></svg>