<svg version="1.1" viewBox="0.0 0.0 960.0 960.0" fill="none" stroke="none" stroke-linecap="square" stroke-miterlimit="10" xmlns:xlink="http://www.w3.org/1999/xlink" xmlns="http://www.w3.org/2000/svg"><clipPath id="g20181060583_0_0.0"><path d="m0 0l960.0 0l0 960.0l-960.0 0l0 -960.0z" clip-rule="nonzero"/></clipPath><g clip-path="url(#g20181060583_0_0.0)"><path fill="#ffffff" d="m0 0l960.0 0l0 960.0l-960.0 0z" fill-rule="evenodd"/><path fill="#000000" fill-opacity="0.0" d="m0.010498688 -0.0131233595l960.0 0l0 960.0l-960.0 0z" fill-rule="evenodd"/><path fill="#000000" fill-opacity="0.0" d="m49.140625 207.71964l510.68536 0l0 407.94595l-510.68536 0l0 -407.94595z" fill-rule="nonzero"/><path fill="#3d85c6" d="m153.89062 535.6825q-28.109375 0 -53.890625 -7.53125q-25.765625 -7.53125 -41.484375 -19.578125l18.40625 -40.828125q15.0625 10.71875 35.640625 17.578125q20.578125 6.859375 41.65625 6.859375q16.0625 0 25.9375 -3.171875q9.875 -3.1875 14.5625 -8.875q4.6875 -5.6875 4.6875 -13.0625q0 -9.359375 -7.375 -14.875q-7.359375 -5.53125 -19.40625 -9.046875q-12.046875 -3.515625 -26.609375 -6.6875q-14.546875 -3.1875 -29.109375 -7.875q-14.5625 -4.6875 -26.609375 -12.046875q-12.046875 -7.359375 -19.578125 -19.40625q-7.515625 -12.046875 -7.515625 -30.78125q0 -20.09375 10.875 -36.65625q10.875 -16.5625 32.78125 -26.4375q21.921875 -9.875 55.0625 -9.875q22.078125 0 43.5 5.1875q21.421875 5.1875 37.8125 15.5625l-16.71875 41.171875q-16.40625 -9.375 -32.8125 -13.890625q-16.390625 -4.515625 -32.125 -4.515625q-15.71875 0 -25.765625 3.6875q-10.03125 3.671875 -14.390625 9.53125q-4.34375 5.859375 -4.34375 13.546875q0 9.03125 7.359375 14.5625q7.359375 5.515625 19.40625 8.875q12.046875 3.34375 26.609375 6.6875q14.5625 3.34375 29.109375 7.703125q14.5625 4.34375 26.609375 11.703125q12.046875 7.359375 19.578125 19.40625q7.53125 12.046875 7.53125 30.453125q0 19.75 -11.046875 36.15625q-11.046875 16.390625 -32.96875 26.4375q-21.90625 10.03125 -55.375 10.03125zm219.87006 -1.34375q-29.125 0 -51.875 -11.875q-22.75 -11.875 -35.640625 -32.953125q-12.890625 -21.09375 -12.890625 -47.859375q0 -27.109375 12.890625 -48.03125q12.890625 -20.921875 35.640625 -32.796875q22.75 -11.875 51.875 -11.875q28.4375 0 49.515625 11.875q21.09375 11.875 31.140625 33.96875l-40.5 21.75q-7.03125 -12.71875 -17.578125 -18.734375q-10.53125 -6.03125 -22.921875 -6.03125q-13.375 0 -24.09375 6.03125q-10.703125 6.015625 -16.90625 17.0625q-6.1875 11.046875 -6.1875 26.78125q0 15.71875 6.1875 26.765625q6.203125 11.046875 16.90625 17.078125q10.71875 6.015625 24.09375 6.015625q12.390625 0 22.921875 -5.859375q10.546875 -5.859375 17.578125 -18.90625l40.5 22.078125q-10.046875 21.765625 -31.140625 33.640625q-21.078125 11.875 -49.515625 11.875zm109.42755 -2.671875l0 -180.04688l52.203125 0l0 180.04688l-52.203125 0zm26.09375 -205.14062q-14.390625 0 -23.421875 -8.359375q-9.03125 -8.375 -9.03125 -20.765625q0 -12.375 9.03125 -20.734375q9.03125 -8.375 23.421875 -8.375q14.390625 0 23.421875 7.875q9.046875 7.859375 9.046875 20.234375q0 13.046875 -8.875 21.59375q-8.859375 8.53125 -23.59375 8.53125z" fill-rule="nonzero"/><path fill="#000000" d="m814.49786 348.94812q21.421875 0 37.984375 8.53125q16.5625 8.53125 26.09375 26.109375q9.546875 17.5625 9.546875 45.0l0 103.078125l-52.203125 0l0 -95.046875q0 -21.75 -9.046875 -32.125q-9.03125 -10.375 -25.421875 -10.375q-11.375 0 -20.421875 5.1875q-9.03125 5.1875 -14.0625 15.5625q-5.015625 10.375 -5.015625 26.4375l0 90.359375l-52.203125 0l0 -95.046875q0 -21.75 -8.875 -32.125q-8.859375 -10.375 -25.25 -10.375q-11.390625 0 -20.421875 5.1875q-9.03125 5.1875 -14.0625 15.5625q-5.015625 10.375 -5.015625 26.4375l0 90.359375l-52.203125 0l0 -180.04688l49.859375 0l0 49.203125l-9.359375 -14.390625q9.359375 -18.40625 26.59375 -27.9375q17.234375 -9.546875 39.328125 -9.546875q24.765625 0 43.328125 12.546875q18.578125 12.546875 24.609375 38.3125l-18.40625 -5.015625q9.03125 -21.078125 28.9375 -33.453125q19.921875 -12.390625 45.6875 -12.390625z" fill-rule="nonzero"/><path fill="#3d85c6" d="m49.140625 553.4202l510.68536 0l0 30.119995l-510.68536 0l0 -30.119995z" fill-rule="nonzero"/><path fill="#000000" d="m63.234406 722.0669l0 -80.265625l39.21875 0q15.125 0 22.75 5.734375q7.625 5.734375 7.625 15.140625q0 6.3125 -3.09375 10.953125q-3.09375 4.640625 -8.484375 7.171875q-5.390625 2.515625 -12.375 2.515625l2.171875 -4.703125q7.5625 0 13.40625 2.46875q5.859375 2.453125 9.125 7.28125q3.265625 4.8125 3.265625 11.796875q0 10.328125 -8.140625 16.125q-8.140625 5.78125 -23.96875 5.78125l-41.5 0zm18.453125 -13.984375l21.671875 0q7.234375 0 10.953125 -2.34375q3.734375 -2.359375 3.734375 -7.515625q0 -5.046875 -3.734375 -7.515625q-3.71875 -2.46875 -10.953125 -2.46875l-23.046875 0l0 -13.53125l19.84375 0q6.765625 0 10.375 -2.34375q3.609375 -2.34375 3.609375 -7.171875q0 -4.703125 -3.609375 -7.046875q-3.609375 -2.34375 -10.375 -2.34375l-18.46875 0l0 52.28125zm97.35263 14.90625q-9.859375 0 -17.484375 -4.125q-7.625 -4.140625 -12.046875 -11.296875q-4.40625 -7.171875 -4.40625 -16.34375q0 -9.28125 4.40625 -16.453125q4.421875 -7.171875 12.046875 -11.234375q7.625 -4.078125 17.484375 -4.078125q9.75 0 17.421875 4.078125q7.6875 4.0625 12.046875 11.171875q4.359375 7.109375 4.359375 16.515625q0 9.171875 -4.359375 16.34375q-4.359375 7.15625 -12.046875 11.296875q-7.671875 4.125 -17.421875 4.125zm0 -14.6875q4.46875 0 8.015625 -2.0625q3.5625 -2.0625 5.625 -5.890625q2.0625 -3.84375 2.0625 -9.125q0 -5.390625 -2.0625 -9.171875q-2.0625 -3.78125 -5.625 -5.84375q-3.546875 -2.0625 -8.015625 -2.0625q-4.46875 0 -8.03125 2.0625q-3.546875 2.0625 -5.671875 5.84375q-2.125 3.78125 -2.125 9.171875q0 5.28125 2.125 9.125q2.125 3.828125 5.671875 5.890625q3.5625 2.0625 8.03125 2.0625zm45.740448 13.765625l0 -85.078125l17.890625 0l0 85.078125l-17.890625 0zm64.217896 0.921875q-10.890625 0 -16.96875 -5.5625q-6.078125 -5.5625 -6.078125 -16.578125l0 -54.109375l17.875 0l0 53.890625q0 3.890625 2.0625 6.015625q2.078125 2.125 5.625 2.125q4.25 0 7.21875 -2.296875l4.828125 12.609375q-2.75 1.953125 -6.59375 2.9375q-3.84375 0.96875 -7.96875 0.96875zm-32.5625 -47.46875l0 -13.765625l42.765625 0l0 13.765625l-42.765625 0zm97.21921 47.921875q-9.515625 0 -17.484375 -3.03125q-7.96875 -3.046875 -13.875 -8.65625q-5.90625 -5.625 -9.171875 -13.1875q-3.265625 -7.578125 -3.265625 -16.625q0 -9.0625 3.265625 -16.625q3.265625 -7.578125 9.234375 -13.1875q5.96875 -5.625 13.984375 -8.65625q8.03125 -3.046875 17.65625 -3.046875q10.671875 0 19.203125 3.5625q8.546875 3.546875 14.390625 10.3125l-11.921875 11.015625q-4.359375 -4.59375 -9.515625 -6.828125q-5.15625 -2.234375 -11.234375 -2.234375q-5.84375 0 -10.671875 1.84375q-4.8125 1.828125 -8.3125 5.265625q-3.484375 3.4375 -5.375 8.140625q-1.890625 4.703125 -1.890625 10.4375q0 5.609375 1.890625 10.3125q1.890625 4.703125 5.375 8.203125q3.5 3.5 8.25 5.328125q4.765625 1.828125 10.5 1.828125q5.515625 0 10.71875 -1.765625q5.21875 -1.78125 10.15625 -6.03125l10.546875 13.421875q-6.53125 4.9375 -15.1875 7.578125q-8.65625 2.625 -17.265625 2.625zm15.484375 -12.609375l0 -30.15625l16.96875 0l0 32.5625l-16.96875 -2.40625zm63.524933 12.15625q-10.5625 0 -18.53125 -4.125q-7.953125 -4.140625 -12.3125 -11.296875q-4.359375 -7.171875 -4.359375 -16.34375q0 -9.28125 4.296875 -16.453125q4.296875 -7.171875 11.75 -11.234375q7.453125 -4.078125 16.859375 -4.078125q9.0625 0 16.328125 3.84375q7.28125 3.84375 11.515625 11.015625q4.25 7.15625 4.25 17.140625q0 1.03125 -0.109375 2.359375q-0.109375 1.3125 -0.234375 2.453125l-50.09375 0l0 -10.4375l40.703125 0l-6.890625 3.09375q0 -4.8125 -1.953125 -8.359375q-1.9375 -3.5625 -5.375 -5.5625q-3.4375 -2.015625 -8.03125 -2.015625q-4.578125 0 -8.078125 2.015625q-3.5 2.0 -5.453125 5.609375q-1.9375 3.609375 -1.9375 8.546875l0 2.75q0 5.046875 2.234375 8.890625q2.234375 3.84375 6.296875 5.84375q4.078125 2.0 9.578125 2.0q4.921875 0 8.640625 -1.484375q3.734375 -1.484375 6.84375 -4.46875l9.515625 10.3125q-4.25 4.8125 -10.671875 7.40625q-6.421875 2.578125 -14.78125 2.578125zm79.22308 -63.53125q7.3280945 0 13.1249695 2.9375q5.796875 2.921875 9.109375 8.9375q3.328125 6.015625 3.328125 15.421875l0 35.3125l-17.875 0l0 -32.5625q0 -7.453125 -3.28125 -11.0q-3.265625 -3.5625 -9.2187195 -3.5625q-4.25 0 -7.640625 1.78125q-3.375 1.78125 -5.265625 5.453125q-1.890625 3.65625 -1.890625 9.390625l0 30.5l-17.890625 0l0 -61.6875l17.09375 0l0 17.09375l-3.21875 -5.171875q3.328125 -6.1875 9.515625 -9.515625q6.203125 -3.328125 14.109375 -3.328125zm72.81113 63.53125q-10.5625 0 -18.53125 -4.125q-7.953125 -4.140625 -12.3125 -11.296875q-4.359375 -7.171875 -4.359375 -16.34375q0 -9.28125 4.296875 -16.453125q4.296875 -7.171875 11.75 -11.234375q7.453125 -4.078125 16.859375 -4.078125q9.0625 0 16.328125 3.84375q7.28125 3.84375 11.515625 11.015625q4.25 7.15625 4.25 17.140625q0 1.03125 -0.109375 2.359375q-0.109375 1.3125 -0.234375 2.453125l-50.09375 0l0 -10.4375l40.703125 0l-6.890625 3.09375q0 -4.8125 -1.953125 -8.359375q-1.9375 -3.5625 -5.375 -5.5625q-3.4375 -2.015625 -8.03125 -2.015625q-4.578125 0 -8.078125 2.015625q-3.5 2.0 -5.453125 5.609375q-1.9375 3.609375 -1.9375 8.546875l0 2.75q0 5.046875 2.234375 8.890625q2.234375 3.84375 6.296875 5.84375q4.078125 2.0 9.578125 2.0q4.921875 0 8.640625 -1.484375q3.734375 -1.484375 6.84375 -4.46875l9.515625 10.3125q-4.25 4.8125 -10.671875 7.40625q-6.421875 2.578125 -14.78125 2.578125zm41.723022 -0.921875l0 -61.6875l17.09375 0l0 17.4375l-2.40625 -5.046875q2.75 -6.546875 8.828125 -9.921875q6.078125 -3.390625 14.78125 -3.390625l0 16.515625q-1.140625 -0.109375 -2.0625 -0.171875q-0.921875 -0.0625 -1.953125 -0.0625q-7.328125 0 -11.859375 4.1875q-4.53125 4.1875 -4.53125 13.015625l0 29.125l-17.890625 0zm82.788574 0l0 -12.03125l-1.15625 -2.640625l0 -21.5625q0 -5.734375 -3.5 -8.9375q-3.484375 -3.21875 -10.703125 -3.21875q-4.9375 0 -9.703125 1.546875q-4.75 1.546875 -8.078125 4.1875l-6.421875 -12.5q5.046875 -3.546875 12.15625 -5.5q7.109375 -1.953125 14.453125 -1.953125q14.09375 0 21.890625 6.65625q7.796875 6.65625 7.796875 20.75l0 35.203125l-16.734375 0zm-18.8125 0.921875q-7.21875 0 -12.375 -2.46875q-5.15625 -2.46875 -7.90625 -6.703125q-2.75 -4.25 -2.75 -9.515625q0 -5.515625 2.6875 -9.640625q2.6875 -4.125 8.53125 -6.46875q5.859375 -2.359375 15.265625 -2.359375l16.390625 0l0 10.4375l-14.453125 0q-6.296875 0 -8.65625 2.0625q-2.34375 2.0625 -2.34375 5.15625q0 3.4375 2.6875 5.453125q2.703125 2.0 7.40625 2.0q4.46875 0 8.015625 -2.109375q3.5625 -2.125 5.15625 -6.25l2.765625 8.25q-1.953125 5.953125 -7.125 9.0625q-5.15625 3.09375 -13.296875 3.09375zm76.946045 0q-10.890625 0 -16.96875 -5.5625q-6.078125 -5.5625 -6.078125 -16.578125l0 -54.109375l17.875 0l0 53.890625q0 3.890625 2.0625 6.015625q2.078125 2.125 5.625 2.125q4.25 0 7.21875 -2.296875l4.828125 12.609375q-2.75 1.953125 -6.59375 2.9375q-3.84375 0.96875 -7.96875 0.96875zm-32.5625 -47.46875l0 -13.765625l42.765625 0l0 13.765625l-42.765625 0zm84.61365 47.46875q-9.859375 0 -17.484375 -4.125q-7.625 -4.140625 -12.046875 -11.296875q-4.40625 -7.171875 -4.40625 -16.34375q0 -9.28125 4.40625 -16.453125q4.421875 -7.171875 12.046875 -11.234375q7.625 -4.078125 17.484375 -4.078125q9.75 0 17.421875 4.078125q7.6875 4.0625 12.046875 11.171875q4.359375 7.109375 4.359375 16.515625q0 9.171875 -4.359375 16.34375q-4.359375 7.15625 -12.046875 11.296875q-7.671875 4.125 -17.421875 4.125zm0 -14.6875q4.46875 0 8.015625 -2.0625q3.5625 -2.0625 5.625 -5.890625q2.0625 -3.84375 2.0625 -9.125q0 -5.390625 -2.0625 -9.171875q-2.0625 -3.78125 -5.625 -5.84375q-3.546875 -2.0625 -8.015625 -2.0625q-4.46875 0 -8.03125 2.0625q-3.546875 2.0625 -5.671875 5.84375q-2.125 3.78125 -2.125 9.171875q0 5.28125 2.125 9.125q2.125 3.828125 5.671875 5.890625q3.5625 2.0625 8.03125 2.0625zm45.740356 13.765625l0 -61.6875l17.09375 0l0 17.4375l-2.40625 -5.046875q2.75 -6.546875 8.828125 -9.921875q6.078125 -3.390625 14.78125 -3.390625l0 16.515625q-1.140625 -0.109375 -2.0625 -0.171875q-0.921875 -0.0625 -1.953125 -0.0625q-7.328125 0 -11.859375 4.1875q-4.53125 4.1875 -4.53125 13.015625l0 29.125l-17.890625 0z" fill-rule="nonzero"/></g></svg>