DBRep_DrawableShape

CASCADE Topology V3, (c) Open Cascade
Locations 5
1
              1               0               0               0 
              0               1               0               0 
              0               0               1 -17.0227571171774 
1
              1               0               0               0 
              0               1               0               0 
              0               0               1             6.8 
1
              1               0               0               0 
              0               1               0               0 
              0               0               1             3.4 
2  3 -1 0
2  2 -1 0
Curve2ds 48
1 0 10 1 0 
2 0 0 1 0 -0 1 7.5
1 6.2831853071795862 -0 0 1 
1 0 -0 0 1 
1 0 0 1 0 
2 0 0 1 0 -0 1 7.5
8 -3.0310889132455348 1.0103629710818449
1 -0.87499999999999967 3.5362703987864585 0.86602540378443882 0.49999999999999978 
8 -3.0310889132455348 1.0103629710818449
1 1.0103629710818449 -3.2000000000000002 -1 0 
8 -3.0310889132455356 1.0103629710818451
1 -3.5 1.0103629710818465 3.2965074623718235e-16 1 
8 -3.0310889132455356 1.0103629710818451
1 1.0103629710818451 -3.2000000000000002 -1 0 
8 -3.0310889132455361 1.0103629710818454
1 -2.6250000000000009 -2.5259074277046119 -0.86602540378443849 0.50000000000000033 
8 -3.0310889132455361 1.0103629710818454
1 1.0103629710818454 -3.2000000000000002 -1 -0 
8 -3.0310889132455348 1.0103629710818449
1 0.87499999999999922 -3.5362703987864581 -0.86602540378443882 -0.49999999999999967 
8 -3.0310889132455348 1.0103629710818449
1 1.0103629710818449 -3.2000000000000002 -1 -0 
8 -3.0310889132455361 1.0103629710818454
1 3.4999999999999996 -1.0103629710818467 -3.296507462371823e-16 -1 
8 -3.0310889132455361 1.0103629710818454
1 1.0103629710818454 -3.2000000000000002 -1 -0 
8 -3.0310889132455356 1.0103629710818451
1 2.6250000000000004 2.5259074277046123 0.8660254037844386 -0.50000000000000011 
8 -3.0310889132455356 1.0103629710818451
1 1.0103629710818451 -3.2000000000000002 -1 -0 
1 0 0 1 0 
1 0 -3.3999999999999999 1 0 
1 4.6723471986059994e-16 4.0414518843273806 -0.86602540378443882 -0.49999999999999978 
1 4.0414518843273797 0 0 -1 
1 0 0 0 -1 
1 4.0414518843273806 0 0 -1 
1 0 0 0 -1 
1 0 0 1 0 
1 0 -3.3999999999999999 1 0 
1 -3.4999999999999996 2.0207259421636921 -3.2965074623718235e-16 -1 
1 4.0414518843273806 0 0 -1 
1 0 0 0 -1 
1 0 0 1 0 
1 0 -3.3999999999999999 1 0 
1 -3.5000000000000009 -2.0207259421636885 0.86602540378443849 -0.50000000000000033 
1 4.0414518843273814 0 0 -1 
1 0 0 0 -1 
1 0 0 1 0 
1 0 -3.3999999999999999 1 0 
1 -5.2263550294931315e-16 -4.0414518843273806 0.86602540378443882 0.49999999999999967 
1 4.0414518843273797 0 0 -1 
1 0 0 0 -1 
1 0 0 1 0 
1 0 -3.3999999999999999 1 0 
1 3.4999999999999991 -2.0207259421636916 3.296507462371823e-16 1 
1 0 0 0 -1 
1 4.0414518843273814 0 0 -1 
1 0 0 1 0 
1 0 -3.3999999999999999 1 0 
1 3.5000000000000004 2.0207259421636903 -0.8660254037844386 0.50000000000000011 
Curves 21
2 0 0 10 0 0 1 1 0 -0 -0 1 0 7.5
1 7.5 -1.83697019872103e-15 0 0 0 1 
2 0 0 0 0 0 1 1 0 -0 -0 1 0 7.5
1 -0.87499999999999967 3.5362703987864585 10 0.86602540378443882 0.49999999999999978 -0 
1 -3.5 1.0103629710818465 10 3.2965074623718235e-16 1 -0 
1 -2.6250000000000009 -2.5259074277046119 10 -0.86602540378443849 0.50000000000000033 0 
1 0.87499999999999922 -3.5362703987864581 10 -0.86602540378443882 -0.49999999999999967 0 
1 3.4999999999999996 -1.0103629710818467 10 -3.296507462371823e-16 -1 0 
1 2.6250000000000004 2.5259074277046123 10 0.8660254037844386 -0.50000000000000011 0 
1 2.4746755570247827e-16 4.0414518843273806 0 -0.86602540378443882 -0.49999999999999978 0 
1 -3.4999999999999996 2.0207259421636916 0 0 0 1 
1 2.4746755570247827e-16 4.0414518843273806 0 0 0 1 
1 -3.4999999999999996 2.0207259421636916 0 -3.2965074623718235e-16 -1 0 
1 -3.5000000000000009 -2.0207259421636889 0 0 0 1 
1 -3.5000000000000009 -2.0207259421636889 0 0.86602540378443837 -0.50000000000000022 0 
1 -7.4240266710743482e-16 -4.0414518843273806 0 0 0 1 
1 -7.4240266710743482e-16 -4.0414518843273806 0 0.86602540378443882 0.49999999999999967 0 
1 3.4999999999999991 -2.0207259421636921 0 0 0 1 
1 3.4999999999999991 -2.0207259421636921 0 3.296507462371823e-16 1 0 
1 3.5000000000000004 2.0207259421636898 0 0 0 1 
1 3.5000000000000004 2.0207259421636898 0 -0.8660254037844386 0.50000000000000011 0 
Polygon3D 0
PolygonOnTriangulations 0
Surfaces 10
2 0 0 0 0 0 1 1 0 -0 -0 1 0 7.5
1 0 0 10 0 0 1 1 0 -0 -0 1 0 
1 0 0 0 0 0 1 1 0 -0 -0 1 0 
1 2.4746755570247827e-16 4.0414518843273806 0 0.49999999999999978 -0.86602540378443882 0 -0.86602540378443882 -0.49999999999999978 0 0 -0 -1 
1 -3.4999999999999996 2.0207259421636916 0 1 -3.2965074623718235e-16 0 -3.2965074623718235e-16 -1 0 0 -0 -1 
1 -3.5000000000000009 -2.0207259421636889 0 0.50000000000000033 0.86602540378443849 -0 0.86602540378443849 -0.50000000000000033 0 0 -0 -1 
1 -7.4240266710743482e-16 -4.0414518843273806 0 -0.49999999999999967 0.86602540378443882 0 0.86602540378443882 0.49999999999999967 0 0 0 -1 
1 3.4999999999999991 -2.0207259421636921 0 -1 3.296507462371823e-16 0 3.296507462371823e-16 1 0 0 0 -1 
1 3.5000000000000004 2.0207259421636898 0 -0.50000000000000011 -0.8660254037844386 0 -0.8660254037844386 0.50000000000000011 0 -0 0 -1 
1 -2.1976716415812164e-16 -2.5639502485114189e-16 0 0 0 1 1 0 -0 -0 1 0 
Triangulations 0

TShapes 58
Ve
1e-07
7.5 -1.83697019872103e-15 10
0 0

0101101
*
Ed
 1e-07 1 1 0
1  1 0 0 6.28318530717959
2  1 1 0 0 6.28318530717959
2  2 2 0 0 6.28318530717959
0

0101000
+58 0 -58 0 *
Ve
1e-07
7.5 -1.83697019872103e-15 0
0 0

0101101
*
Ed
 1e-07 1 1 0
1  2 0 0 10
3  3 4CN 1 0 0 10
0

0101000
-58 0 +56 0 *
Ed
 1e-07 1 1 0
1  3 0 0 6.28318530717959
2  5 1 0 0 6.28318530717959
2  6 3 0 0 6.28318530717959
0

0101000
+56 0 -56 0 *
Wi

0101100
-57 0 +55 0 +54 0 -55 0 *
Fa
0  1e-07 1 0

0111000
+53 0 *
Wi

0101100
+57 0 *
Ve
6e-07
-3.5 2.02072594216369 10
0 0

0101101
*
Ve
6.00000000196622e-07
2.47467555702478e-16 4.04145188432738 10
0 0

0101101
*
Ed
 6e-07 1 1 0
1  4 0 -3.03108891324553 1.01036297108184
2  7 2 0 -3.03108891324553 1.01036297108184
2  8 4 2 -3.03108891324553 1.01036297108184
0

0101000
+50 0 -49 0 *
Ve
6e-07
-3.5 -2.02072594216369 10
0 0

0101101
*
Ed
 6e-07 1 1 0
1  5 0 -3.03108891324554 1.01036297108185
2  9 2 0 -3.03108891324554 1.01036297108185
2  10 5 2 -3.03108891324554 1.01036297108185
0

0101000
+47 0 -50 0 *
Ve
6.00000000936937e-07
-7.42402667107435e-16 -4.04145188432738 10
0 0

0101101
*
Ed
 6e-07 1 1 0
1  6 0 -3.03108891324554 1.01036297108185
2  11 2 0 -3.03108891324554 1.01036297108185
2  12 6 2 -3.03108891324554 1.01036297108185
0

0101000
+45 0 -47 0 *
Ve
6.00000000444089e-07
3.5 -2.02072594216369 10
0 0

0101101
*
Ed
 6e-07 1 1 0
1  7 0 -3.03108891324553 1.01036297108184
2  13 2 0 -3.03108891324553 1.01036297108184
2  14 7 2 -3.03108891324553 1.01036297108184
0

0101000
+43 0 -45 0 *
Ve
6.00000000444089e-07
3.5 2.02072594216369 10
0 0

0101101
*
Ed
 6e-07 1 1 0
1  8 0 -3.03108891324554 1.01036297108185
2  15 2 0 -3.03108891324554 1.01036297108185
2  16 8 2 -3.03108891324554 1.01036297108185
0

0101000
+41 0 -43 0 *
Ed
 6e-07 1 1 0
1  9 0 -3.03108891324554 1.01036297108185
2  17 2 0 -3.03108891324554 1.01036297108185
2  18 9 2 -3.03108891324554 1.01036297108185
0

0101000
+49 0 -41 0 *
Wi

0101100
+48 0 +46 0 +44 0 +42 0 +40 0 +39 0 *
Fa
0  1e-07 2 0

0101000
+51 0 +38 0 *
Wi

0101100
-54 0 *
Fa
0  1e-07 3 0

0111000
-36 0 *
Ve
1e-07
2.47467555702478e-16 4.04145188432738 0
0 0

0101101
*
Ve
1e-07
-3.5 2.02072594216369 0
0 0

0101101
*
Ed
 1e-07 1 1 0
1  10 0 0 4.04145188432738
2  19 4 0 0 4.04145188432738
2  20 4 4 0 4.04145188432738
2  21 10 0 0 4.04145188432738
0

0101000
+34 0 -33 0 *
Ed
 1e-07 1 1 0
1  11 0 0 3.2
2  22 4 0 0 3.2
2  23 5 0 0 3.2
0

0101000
+33 0 -50 5 *
Ed
 1e-07 1 1 0
1  12 0 0 3.2
2  24 9 0 0 3.2
2  25 4 0 0 3.2
0

0101000
+34 0 -49 5 *
Wi

0101100
-32 2 -31 2 -48 0 +30 2 *
Fa
0  1e-07 4 2

0101000
+29 0 *
Ve
1e-07
-3.5 -2.02072594216369 0
0 0

0101101
*
Ed
 1e-07 1 1 0
1  13 0 0 4.04145188432738
2  26 5 0 0 4.04145188432738
2  27 5 4 0 4.04145188432738
2  28 10 0 0 4.04145188432738
0

0101000
+33 0 -27 0 *
Ed
 1e-07 1 1 0
1  14 0 0 3.2
2  29 5 0 0 3.2
2  30 6 0 0 3.2
0

0101000
+27 0 -47 5 *
Wi

0101100
-26 2 -25 2 -46 0 +31 2 *
Fa
0  1e-07 5 2

0101000
+24 0 *
Ve
1e-07
-7.42402667107435e-16 -4.04145188432738 0
0 0

0101101
*
Ed
 1e-07 1 1 0
1  15 0 0 4.04145188432738
2  31 6 0 0 4.04145188432738
2  32 6 4 0 4.04145188432738
2  33 10 0 0 4.04145188432738
0

0101000
+27 0 -22 0 *
Ed
 1e-07 1 1 0
1  16 0 0 3.2
2  34 6 0 0 3.2
2  35 7 0 0 3.2
0

0101000
+22 0 -45 5 *
Wi

0101100
-21 2 -20 2 -44 0 +25 2 *
Fa
0  1e-07 6 2

0101000
+19 0 *
Ve
1e-07
3.5 -2.02072594216369 0
0 0

0101101
*
Ed
 1e-07 1 1 0
1  17 0 0 4.04145188432738
2  36 7 0 0 4.04145188432738
2  37 7 4 0 4.04145188432738
2  38 10 0 0 4.04145188432738
0

0101000
+22 0 -17 0 *
Ed
 1e-07 1 1 0
1  18 0 0 3.2
2  39 7 0 0 3.2
2  40 8 0 0 3.2
0

0101000
+17 0 -43 5 *
Wi

0101100
-16 2 -15 2 -42 0 +20 2 *
Fa
0  1e-07 7 2

0101000
+14 0 *
Ve
1e-07
3.5 2.02072594216369 0
0 0

0101101
*
Ed
 1e-07 1 1 0
1  19 0 0 4.04145188432738
2  41 8 0 0 4.04145188432738
2  42 8 4 0 4.04145188432738
2  43 10 0 0 4.04145188432738
0

0101000
+17 0 -12 0 *
Ed
 1e-07 1 1 0
1  20 0 0 3.2
2  44 9 0 0 3.2
2  45 8 0 0 3.2
0

0101000
+12 0 -41 5 *
Wi

0101100
-11 2 -10 2 -40 0 +15 2 *
Fa
0  1e-07 8 2

0101000
+9 0 *
Ed
 1e-07 1 1 0
1  21 0 0 4.04145188432738
2  46 9 0 0 4.04145188432738
2  47 9 4 0 4.04145188432738
2  48 10 0 0 4.04145188432738
0

0101000
+12 0 -34 0 *
Wi

0101100
-7 2 -30 2 -39 0 +10 2 *
Fa
0  1e-07 9 2

0101000
+6 0 *
Wi

0101100
+7 0 +32 0 +26 0 +21 0 +16 0 +11 0 *
Fa
0  1e-07 10 0

0101000
+4 0 *
Sh

0101100
+52 0 +37 0 -35 0 +28 0 +23 0 +18 0 +13 0 +8 0 +5 0 +3 2 
*
So

0100000
+2 0 *

+1 1 