DBRep_DrawableShape

CASCADE Topology V3, (c) Open Cascade
Locations 3
1
              1               0               0               0 
              0               1               0               0 
              0               0               1 -19.1243774282719 
1
              1               0               0               0 
              0               1               0               0 
              0               0               1              16 
2  2 -1 0
Curve2ds 22
1 0 0 0 -1 
1 11.54700538379252 0 0 -1 
1 0 0 0 -1 
1 0 0 1 0 
1 0 -16 1 0 
1 10.000000000000002 5.7735026918962573 -0.86602540378443871 0.50000000000000011 
1 11.547005383792513 0 0 -1 
1 0 0 1 0 
1 0 -16 1 0 
1 8.0960816909039475e-16 11.547005383792516 -0.86602540378443871 -0.49999999999999983 
1 0 0 0 -1 
1 -9.9999999999999982 5.7735026918962618 -4.615110447320553e-16 -1 
1 11.54700538379252 0 0 -1 
1 0 0 0 -1 
1 0 0 1 0 
1 0 -16 1 0 
1 -10.000000000000004 -5.7735026918962546 0.8660254037844386 -0.50000000000000022 
1 11.547005383792513 0 0 -1 
1 0 0 1 0 
1 0 -16 1 0 
1 -2.0185924675093573e-15 -11.547005383792516 0.86602540378443882 0.49999999999999967 
1 9.9999999999999982 -5.7735026918962635 3.0767402982137008e-16 1 
Curves 12
1 10.000000000000002 5.7735026918962573 0 0 0 1 
1 7.0705015914993798e-16 11.547005383792516 0 0 0 1 
1 10.000000000000002 5.7735026918962573 0 -0.8660254037844386 0.5 0 
1 -9.9999999999999982 5.7735026918962618 0 0 0 1 
1 7.0705015914993798e-16 11.547005383792516 0 -0.86602540378443871 -0.49999999999999983 0 
1 -10.000000000000004 -5.7735026918962546 0 0 0 1 
1 -9.9999999999999982 5.7735026918962618 0 -4.615110447320553e-16 -1 0 
1 -2.1211504774498139e-15 -11.547005383792516 0 0 0 1 
1 -10.000000000000004 -5.7735026918962546 0 0.86602540378443849 -0.50000000000000011 0 
1 9.9999999999999982 -5.7735026918962635 0 0 0 1 
1 -2.1211504774498139e-15 -11.547005383792516 0 0.86602540378443882 0.49999999999999967 0 
1 9.9999999999999982 -5.7735026918962635 0 3.0767402982137008e-16 1 0 
Polygon3D 0
PolygonOnTriangulations 0
Surfaces 7
1 10.000000000000002 5.7735026918962573 0 -0.50000000000000011 -0.86602540378443871 0 -0.86602540378443871 0.50000000000000011 0 -0 0 -1 
1 7.0705015914993798e-16 11.547005383792516 0 0.49999999999999983 -0.86602540378443871 0 -0.86602540378443871 -0.49999999999999983 0 0 -0 -1 
1 -1.0255800994045673e-16 -1.0255800994045673e-16 0 0 0 1 1 0 -0 -0 1 0 
1 -9.9999999999999982 5.7735026918962618 0 1 -4.615110447320553e-16 0 -4.615110447320553e-16 -1 0 0 -0 -1 
1 -10.000000000000004 -5.7735026918962546 0 0.50000000000000022 0.8660254037844386 -0 0.8660254037844386 -0.50000000000000022 0 0 -0 -1 
1 -2.1211504774498139e-15 -11.547005383792516 0 -0.49999999999999967 0.86602540378443882 0 0.86602540378443882 0.49999999999999967 0 0 0 -1 
1 9.9999999999999982 -5.7735026918962635 0 -1 3.0767402982137008e-16 0 3.0767402982137008e-16 1 0 0 0 -1 
Triangulations 0

TShapes 34
Ve
1e-07
10 5.77350269189626 0
0 0

0101101
*
Ed
 1e-07 1 1 0
1  1 0 0 16
2  1 1 0 0 16
0

0101000
+34 0 -34 2 *
Ve
1e-07
7.07050159149938e-16 11.5470053837925 0
0 0

0101101
*
Ed
 1e-07 1 1 0
1  2 0 0 16
2  2 1 0 0 16
2  3 2 0 0 16
0

0101000
+32 0 -32 2 *
Ed
 1e-07 1 1 0
1  3 0 0 11.5470053837925
2  4 1 0 0 11.5470053837925
2  5 1 3 0 11.5470053837925
2  6 3 0 0 11.5470053837925
0

0101000
+34 0 -32 0 *
Wi

0101100
+33 0 -31 0 -30 0 +30 2 *
Fa
0  1e-07 1 0

0101000
+29 0 *
Ve
1e-07
-10 5.77350269189626 0
0 0

0101101
*
Ed
 1e-07 1 1 0
1  4 0 0 16
2  7 2 0 0 16
0

0101000
+27 0 -27 2 *
Ed
 1e-07 1 1 0
1  5 0 0 11.5470053837925
2  8 2 0 0 11.5470053837925
2  9 2 3 0 11.5470053837925
2  10 3 0 0 11.5470053837925
0

0101000
+32 0 -27 0 *
Wi

0101100
+31 0 -26 0 -25 0 +25 2 *
Fa
0  1e-07 2 0

0101000
+24 0 *
Ve
1e-07
-10 -5.77350269189625 0
0 0

0101101
*
Ed
 1e-07 1 1 0
1  6 0 0 16
2  11 5 0 0 16
0

0101000
+22 0 -22 2 *
Ed
 1e-07 1 1 0
1  7 0 0 11.5470053837925
2  12 3 0 0 11.5470053837925
0

0101000
+27 0 -22 0 *
Wi

0101100
+26 0 -21 0 -20 0 +20 2 *
Fa
0  1e-07 4 0

0101000
+19 0 *
Ve
1e-07
-2.12115047744981e-15 -11.5470053837925 0
0 0

0101101
*
Ed
 1e-07 1 1 0
1  8 0 0 16
2  13 5 0 0 16
2  14 6 0 0 16
0

0101000
+17 0 -17 2 *
Ed
 1e-07 1 1 0
1  9 0 0 11.5470053837925
2  15 5 0 0 11.5470053837925
2  16 5 3 0 11.5470053837925
2  17 3 0 0 11.5470053837925
0

0101000
+22 0 -17 0 *
Wi

0101100
+21 0 -16 0 -15 0 +15 2 *
Fa
0  1e-07 5 0

0101000
+14 0 *
Ve
1e-07
10 -5.77350269189626 0
0 0

0101101
*
Ed
 1e-07 1 1 0
1  10 0 0 16
2  18 6 0 0 16
0

0101000
+12 0 -12 2 *
Ed
 1e-07 1 1 0
1  11 0 0 11.5470053837925
2  19 6 0 0 11.5470053837925
2  20 6 3 0 11.5470053837925
2  21 3 0 0 11.5470053837925
0

0101000
+17 0 -12 0 *
Wi

0101100
+16 0 -11 0 -10 0 +10 2 *
Fa
0  1e-07 6 0

0101000
+9 0 *
Ed
 1e-07 1 1 0
1  12 0 0 11.5470053837925
2  22 3 0 0 11.5470053837925
0

0101000
+12 0 -34 0 *
Wi

0101100
+11 0 -33 0 -7 0 +7 2 *
Fa
0  1e-07 7 0

0101000
+6 0 *
Wi

0101100
+30 0 +25 0 +20 0 +15 0 +10 0 +7 0 *
Fa
0  1e-07 3 0

0101000
+4 0 *
Sh

0101100
+28 0 +23 0 +18 0 +13 0 +8 0 +5 0 +3 0 -3 2 *
So

0100000
-2 0 *

+1 1 