DBRep_DrawableShape

CASCADE Topology V3, (c) Open Cascade
Locations 5
1
              1               0               0               0 
              0               1               0               0 
              0               0               1 -28.774778303619 
1
              1               0               0               0 
              0               1               0               0 
              0               0               1            10.8 
1
              1               0               0               0 
              0               1               0               0 
              0               0               1             5.4 
2  3 -1 0
2  2 -1 0
Curve2ds 48
1 0 16 1 0 
2 0 0 1 0 -0 1 10
1 6.2831853071795862 -0 0 1 
1 0 -0 0 1 
1 0 0 1 0 
2 0 0 1 0 -0 1 10
8 -4.3301270189221928 1.4433756729740641
1 -1.2499999999999996 5.0518148554092264 0.86602540378443871 0.49999999999999983 
8 -4.3301270189221928 1.4433756729740641
1 1.4433756729740641 -5.1999999999999993 -1 0 
8 -4.3301270189221936 1.4433756729740643
1 -5 1.4433756729740665 4.615110447320553e-16 1 
8 -4.3301270189221936 1.4433756729740643
1 1.4433756729740643 -5.1999999999999993 -1 0 
8 -4.3301270189221945 1.443375672974065
1 -3.7500000000000018 -3.6084391824351605 -0.8660254037844386 0.50000000000000022 
8 -4.3301270189221945 1.443375672974065
1 1.443375672974065 -5.1999999999999993 -1 -0 
8 -4.3301270189221919 1.4433756729740643
1 1.2499999999999989 -5.0518148554092264 -0.86602540378443882 -0.49999999999999967 
8 -4.3301270189221919 1.4433756729740643
1 1.4433756729740643 -5.1999999999999993 -1 -0 
8 -4.3301270189221945 1.4433756729740652
1 5 -1.4433756729740665 -3.0767402982137008e-16 -1 
8 -4.3301270189221945 1.4433756729740652
1 1.4433756729740652 -5.1999999999999993 -1 -0 
8 -4.3301270189221945 1.443375672974065
1 3.7500000000000009 3.6084391824351618 0.86602540378443871 -0.50000000000000011 
8 -4.3301270189221945 1.443375672974065
1 1.443375672974065 -5.1999999999999993 -1 -0 
1 0 0 1 0 
1 0 -5.4000000000000004 1 0 
1 4.0480408454519738e-16 5.7735026918962582 -0.86602540378443871 -0.49999999999999983 
1 5.7735026918962564 0 0 -1 
1 0 0 0 -1 
1 5.77350269189626 0 0 -1 
1 0 0 0 -1 
1 0 0 1 0 
1 0 -5.4000000000000004 1 0 
1 -4.9999999999999991 2.8867513459481309 -4.615110447320553e-16 -1 
1 5.7735026918962582 0 0 -1 
1 0 0 0 -1 
1 0 0 1 0 
1 0 -5.4000000000000004 1 0 
1 -5.0000000000000018 -2.8867513459481273 0.8660254037844386 -0.50000000000000022 
1 5.77350269189626 0 0 -1 
1 0 0 0 -1 
1 0 0 1 0 
1 0 -5.4000000000000004 1 0 
1 -1.0092962337546787e-15 -5.7735026918962582 0.86602540378443882 0.49999999999999967 
1 5.7735026918962564 0 0 -1 
1 0 0 0 -1 
1 0 0 1 0 
1 0 -5.4000000000000004 1 0 
1 4.9999999999999991 -2.8867513459481318 3.0767402982137008e-16 1 
1 0 0 0 -1 
1 5.77350269189626 0 0 -1 
1 0 0 1 0 
1 0 -5.4000000000000004 1 0 
1 5.0000000000000009 2.8867513459481287 -0.86602540378443871 0.50000000000000011 
Curves 21
2 0 0 16 0 0 1 1 0 -0 -0 1 0 10
1 10 -2.4492935982947065e-15 0 0 0 1 
2 0 0 0 0 0 1 1 0 -0 -0 1 0 10
1 -1.2499999999999996 5.0518148554092264 16 0.86602540378443871 0.49999999999999983 -0 
1 -5 1.4433756729740665 16 4.615110447320553e-16 1 -0 
1 -3.7500000000000018 -3.6084391824351605 16 -0.8660254037844386 0.50000000000000022 0 
1 1.2499999999999989 -5.0518148554092264 16 -0.86602540378443882 -0.49999999999999967 0 
1 5 -1.4433756729740665 16 -3.0767402982137008e-16 -1 0 
1 3.7500000000000009 3.6084391824351618 16 0.86602540378443871 -0.50000000000000011 0 
1 3.5352507957496899e-16 5.7735026918962582 0 -0.86602540378443871 -0.49999999999999983 0 
1 -4.9999999999999991 2.8867513459481309 0 0 0 1 
1 3.5352507957496899e-16 5.7735026918962582 0 0 0 1 
1 -4.9999999999999991 2.8867513459481309 0 -4.615110447320553e-16 -1 0 
1 -5.0000000000000018 -2.8867513459481273 0 0 0 1 
1 -5.0000000000000018 -2.8867513459481273 0 0.86602540378443849 -0.50000000000000011 0 
1 -1.060575238724907e-15 -5.7735026918962582 0 0 0 1 
1 -1.060575238724907e-15 -5.7735026918962582 0 0.86602540378443882 0.49999999999999967 0 
1 4.9999999999999991 -2.8867513459481318 0 0 0 1 
1 4.9999999999999991 -2.8867513459481318 0 3.0767402982137008e-16 1 0 
1 5.0000000000000009 2.8867513459481287 0 0 0 1 
1 5.0000000000000009 2.8867513459481287 0 -0.8660254037844386 0.5 0 
Polygon3D 0
PolygonOnTriangulations 0
Surfaces 10
2 0 0 0 0 0 1 1 0 -0 -0 1 0 10
1 0 0 16 0 0 1 1 0 -0 -0 1 0 
1 0 0 0 0 0 1 1 0 -0 -0 1 0 
1 3.5352507957496899e-16 5.7735026918962582 0 0.49999999999999983 -0.86602540378443871 0 -0.86602540378443871 -0.49999999999999983 0 0 -0 -1 
1 -4.9999999999999991 2.8867513459481309 0 1 -4.615110447320553e-16 0 -4.615110447320553e-16 -1 0 0 -0 -1 
1 -5.0000000000000018 -2.8867513459481273 0 0.50000000000000022 0.8660254037844386 -0 0.8660254037844386 -0.50000000000000022 0 0 -0 -1 
1 -1.060575238724907e-15 -5.7735026918962582 0 -0.49999999999999967 0.86602540378443882 0 0.86602540378443882 0.49999999999999967 0 0 0 -1 
1 4.9999999999999991 -2.8867513459481318 0 -1 3.0767402982137008e-16 0 3.0767402982137008e-16 1 0 0 0 -1 
1 5.0000000000000009 2.8867513459481287 0 -0.50000000000000011 -0.86602540378443871 0 -0.86602540378443871 0.50000000000000011 0 -0 0 -1 
1 -5.1279004970228364e-17 -5.1279004970228364e-17 0 0 0 1 1 0 -0 -0 1 0 
Triangulations 0

TShapes 58
Ve
1e-07
10 -2.44929359829471e-15 16
0 0

0101101
*
Ed
 1e-07 1 1 0
1  1 0 0 6.28318530717959
2  1 1 0 0 6.28318530717959
2  2 2 0 0 6.28318530717959
0

0101000
+58 0 -58 0 *
Ve
1e-07
10 -2.44929359829471e-15 0
0 0

0101101
*
Ed
 1e-07 1 1 0
1  2 0 0 16
3  3 4CN 1 0 0 16
0

0101000
-58 0 +56 0 *
Ed
 1e-07 1 1 0
1  3 0 0 6.28318530717959
2  5 1 0 0 6.28318530717959
2  6 3 0 0 6.28318530717959
0

0101000
+56 0 -56 0 *
Wi

0101100
-57 0 +55 0 +54 0 -55 0 *
Fa
0  1e-07 1 0

0111000
+53 0 *
Wi

0101100
+57 0 *
Ve
6.00000000888178e-07
-5 2.88675134594813 16
0 0

0101101
*
Ve
6.00000001947211e-07
3.53525079574969e-16 5.77350269189626 16
0 0

0101101
*
Ed
 6e-07 1 1 0
1  4 0 -4.33012701892219 1.44337567297406
2  7 2 0 -4.33012701892219 1.44337567297406
2  8 4 2 -4.33012701892219 1.44337567297406
0

0101000
+50 0 -49 0 *
Ve
6.00000000444089e-07
-5 -2.88675134594813 16
0 0

0101101
*
Ed
 6e-07 1 1 0
1  5 0 -4.33012701892219 1.44337567297406
2  9 2 0 -4.33012701892219 1.44337567297406
2  10 5 2 -4.33012701892219 1.44337567297406
0

0101000
+47 0 -50 0 *
Ve
6.00000000271692e-07
-1.06057523872491e-15 -5.77350269189626 16
0 0

0101101
*
Ed
 6e-07 1 1 0
1  6 0 -4.33012701892219 1.44337567297406
2  11 2 0 -4.33012701892219 1.44337567297406
2  12 6 2 -4.33012701892219 1.44337567297406
0

0101000
+45 0 -47 0 *
Ve
6.00000000888178e-07
5 -2.88675134594813 16
0 0

0101101
*
Ed
 6e-07 1 1 0
1  7 0 -4.33012701892219 1.44337567297406
2  13 2 0 -4.33012701892219 1.44337567297406
2  14 7 2 -4.33012701892219 1.44337567297406
0

0101000
+43 0 -45 0 *
Ve
6.00000000993014e-07
5 2.88675134594813 16
0 0

0101101
*
Ed
 6e-07 1 1 0
1  8 0 -4.33012701892219 1.44337567297407
2  15 2 0 -4.33012701892219 1.44337567297407
2  16 8 2 -4.33012701892219 1.44337567297407
0

0101000
+41 0 -43 0 *
Ed
 6e-07 1 1 0
1  9 0 -4.33012701892219 1.44337567297406
2  17 2 0 -4.33012701892219 1.44337567297406
2  18 9 2 -4.33012701892219 1.44337567297406
0

0101000
+49 0 -41 0 *
Wi

0101100
+48 0 +46 0 +44 0 +42 0 +40 0 +39 0 *
Fa
0  1e-07 2 0

0101000
+51 0 +38 0 *
Wi

0101100
-54 0 *
Fa
0  1e-07 3 0

0111000
-36 0 *
Ve
1e-07
3.53525079574969e-16 5.77350269189626 0
0 0

0101101
*
Ve
1e-07
-5 2.88675134594813 0
0 0

0101101
*
Ed
 1e-07 1 1 0
1  10 0 0 5.77350269189626
2  19 4 0 0 5.77350269189626
2  20 4 4 0 5.77350269189626
2  21 10 0 0 5.77350269189626
0

0101000
+34 0 -33 0 *
Ed
 1e-07 1 1 0
1  11 0 0 5.2
2  22 4 0 0 5.2
2  23 5 0 0 5.2
0

0101000
+33 0 -50 5 *
Ed
 1e-07 1 1 0
1  12 0 0 5.2
2  24 9 0 0 5.2
2  25 4 0 0 5.2
0

0101000
+34 0 -49 5 *
Wi

0101100
-32 2 -31 2 -48 0 +30 2 *
Fa
0  1e-07 4 2

0101000
+29 0 *
Ve
1e-07
-5 -2.88675134594813 0
0 0

0101101
*
Ed
 1e-07 1 1 0
1  13 0 0 5.77350269189626
2  26 5 0 0 5.77350269189626
2  27 5 4 0 5.77350269189626
2  28 10 0 0 5.77350269189626
0

0101000
+33 0 -27 0 *
Ed
 1e-07 1 1 0
1  14 0 0 5.2
2  29 5 0 0 5.2
2  30 6 0 0 5.2
0

0101000
+27 0 -47 5 *
Wi

0101100
-26 2 -25 2 -46 0 +31 2 *
Fa
0  1e-07 5 2

0101000
+24 0 *
Ve
1e-07
-1.06057523872491e-15 -5.77350269189626 0
0 0

0101101
*
Ed
 1e-07 1 1 0
1  15 0 0 5.77350269189626
2  31 6 0 0 5.77350269189626
2  32 6 4 0 5.77350269189626
2  33 10 0 0 5.77350269189626
0

0101000
+27 0 -22 0 *
Ed
 1e-07 1 1 0
1  16 0 0 5.2
2  34 6 0 0 5.2
2  35 7 0 0 5.2
0

0101000
+22 0 -45 5 *
Wi

0101100
-21 2 -20 2 -44 0 +25 2 *
Fa
0  1e-07 6 2

0101000
+19 0 *
Ve
1e-07
5 -2.88675134594813 0
0 0

0101101
*
Ed
 1e-07 1 1 0
1  17 0 0 5.77350269189626
2  36 7 0 0 5.77350269189626
2  37 7 4 0 5.77350269189626
2  38 10 0 0 5.77350269189626
0

0101000
+22 0 -17 0 *
Ed
 1e-07 1 1 0
1  18 0 0 5.2
2  39 7 0 0 5.2
2  40 8 0 0 5.2
0

0101000
+17 0 -43 5 *
Wi

0101100
-16 2 -15 2 -42 0 +20 2 *
Fa
0  1e-07 7 2

0101000
+14 0 *
Ve
1e-07
5 2.88675134594813 0
0 0

0101101
*
Ed
 1e-07 1 1 0
1  19 0 0 5.77350269189626
2  41 8 0 0 5.77350269189626
2  42 8 4 0 5.77350269189626
2  43 10 0 0 5.77350269189626
0

0101000
+17 0 -12 0 *
Ed
 1e-07 1 1 0
1  20 0 0 5.2
2  44 9 0 0 5.2
2  45 8 0 0 5.2
0

0101000
+12 0 -41 5 *
Wi

0101100
-11 2 -10 2 -40 0 +15 2 *
Fa
0  1e-07 8 2

0101000
+9 0 *
Ed
 1e-07 1 1 0
1  21 0 0 5.77350269189626
2  46 9 0 0 5.77350269189626
2  47 9 4 0 5.77350269189626
2  48 10 0 0 5.77350269189626
0

0101000
+12 0 -34 0 *
Wi

0101100
-7 2 -30 2 -39 0 +10 2 *
Fa
0  1e-07 9 2

0101000
+6 0 *
Wi

0101100
+7 0 +32 0 +26 0 +21 0 +16 0 +11 0 *
Fa
0  1e-07 10 0

0101000
+4 0 *
Sh

0101100
+52 0 +37 0 -35 0 +28 0 +23 0 +18 0 +13 0 +8 0 +5 0 +3 2 
*
So

0100000
+2 0 *

+1 1 