DBRep_DrawableShape

CASCADE Topology V3, (c) Open Cascade
Locations 5
1
              1               0               0               0 
              0               1               0               0 
              0               0               1 -19.1243769282719 
1
              1               0               0               0 
              0               1               0               0 
              0               0               1             7.8 
1
              1               0               0               0 
              0               1               0               0 
              0               0               1             8.4 
2  3 -1 0
2  2 -1 0
Curve2ds 48
1 0 16 1 0 
2 0 0 1 0 -0 1 10
1 6.2831853071795862 -0 0 1 
1 0 -0 0 1 
1 0 0 1 0 
2 0 0 1 0 -0 1 10
8 -5.1961524227066311 1.732050807568877
1 -1.4999999999999996 6.0621778264910713 0.86602540378443871 0.49999999999999983 
8 -5.1961524227066311 1.732050807568877
1 1.732050807568877 -8.1999999999999993 -1 0 
8 -5.1961524227066329 1.7320508075688774
1 -6 1.7320508075688796 3.8459253727671271e-16 1 
8 -5.1961524227066329 1.7320508075688774
1 1.7320508075688774 -8.1999999999999993 -1 0 
8 -5.1961524227066338 1.7320508075688781
1 -4.5000000000000018 -4.3301270189221928 -0.8660254037844386 0.50000000000000022 
8 -5.1961524227066338 1.7320508075688781
1 1.7320508075688781 -8.1999999999999993 -1 -0 
8 -5.1961524227066302 1.7320508075688772
1 1.4999999999999987 -6.0621778264910713 -0.86602540378443882 -0.49999999999999972 
8 -5.1961524227066302 1.7320508075688772
1 1.7320508075688772 -8.1999999999999993 -1 -0 
8 -5.1961524227066347 1.7320508075688779
1 5.9999999999999991 -1.7320508075688801 -3.8459253727671262e-16 -1 
8 -5.1961524227066347 1.7320508075688779
1 1.7320508075688779 -8.1999999999999993 -1 -0 
8 -5.1961524227066329 1.7320508075688776
1 4.5000000000000018 4.3301270189221945 0.86602540378443871 -0.50000000000000011 
8 -5.1961524227066329 1.7320508075688776
1 1.7320508075688776 -8.1999999999999993 -1 -0 
1 0 0 1 0 
1 0 -8.4000000000000004 1 0 
1 9.3702014519224635e-16 6.9282032302755097 -0.86602540378443871 -0.49999999999999983 
1 6.928203230275507 0 0 -1 
1 0 0 0 -1 
1 6.9282032302755105 0 0 -1 
1 0 0 0 -1 
1 0 0 1 0 
1 0 -8.4000000000000004 1 0 
1 -5.9999999999999982 3.4641016151377575 -3.8459253727671271e-16 -1 
1 6.9282032302755105 0 0 -1 
1 0 0 0 -1 
1 0 0 1 0 
1 0 -8.4000000000000004 1 0 
1 -6.0000000000000009 -3.4641016151377526 0.8660254037844386 -0.50000000000000022 
1 6.9282032302755105 0 0 -1 
1 0 0 0 -1 
1 0 0 1 0 
1 0 -8.4000000000000004 1 0 
1 -7.5990023676760461e-16 -6.9282032302755097 0.86602540378443882 0.49999999999999972 
1 6.928203230275507 0 0 -1 
1 0 0 0 -1 
1 0 0 1 0 
1 0 -8.4000000000000004 1 0 
1 5.9999999999999991 -3.4641016151377575 3.8459253727671262e-16 1 
1 0 0 0 -1 
1 6.9282032302755123 0 0 -1 
1 0 0 1 0 
1 0 -8.4000000000000004 1 0 
1 6.0000000000000018 3.4641016151377548 -0.86602540378443871 0.50000000000000011 
Curves 21
2 0 0 16 0 0 1 1 0 -0 -0 1 0 10
1 10 -2.4492935982947065e-15 0 0 0 1 
2 0 0 0 0 0 1 1 0 -0 -0 1 0 10
1 -1.4999999999999996 6.0621778264910713 16 0.86602540378443871 0.49999999999999983 -0 
1 -6 1.7320508075688796 16 3.8459253727671271e-16 1 -0 
1 -4.5000000000000018 -4.3301270189221928 16 -0.8660254037844386 0.50000000000000022 0 
1 1.4999999999999987 -6.0621778264910713 16 -0.86602540378443882 -0.49999999999999972 0 
1 5.9999999999999991 -1.7320508075688801 16 -3.8459253727671262e-16 -1 0 
1 4.5000000000000018 4.3301270189221945 16 0.86602540378443871 -0.50000000000000011 0 
1 4.2423009548996277e-16 6.9282032302755097 0 -0.86602540378443871 -0.49999999999999983 0 
1 -5.9999999999999991 3.4641016151377571 0 0 0 1 
1 4.2423009548996277e-16 6.9282032302755097 0 0 0 1 
1 -5.9999999999999991 3.4641016151377571 0 -3.8459253727671271e-16 -1 0 
1 -6.0000000000000018 -3.4641016151377531 0 0 0 1 
1 -6.0000000000000018 -3.4641016151377531 0 0.86602540378443849 -0.50000000000000011 0 
1 -1.2726902864698882e-15 -6.9282032302755097 0 0 0 1 
1 -1.2726902864698882e-15 -6.9282032302755097 0 0.86602540378443882 0.49999999999999972 0 
1 5.9999999999999982 -3.4641016151377579 0 0 0 1 
1 5.9999999999999982 -3.4641016151377579 0 3.8459253727671262e-16 1 0 
1 6.0000000000000009 3.4641016151377544 0 0 0 1 
1 6.0000000000000009 3.4641016151377544 0 -0.8660254037844386 0.5 0 
Polygon3D 0
PolygonOnTriangulations 0
Surfaces 10
2 0 0 0 0 0 1 1 0 -0 -0 1 0 10
1 0 0 16 0 0 1 1 0 -0 -0 1 0 
1 0 0 0 0 0 1 1 0 -0 -0 1 0 
1 4.2423009548996277e-16 6.9282032302755097 0 0.49999999999999983 -0.86602540378443871 0 -0.86602540378443871 -0.49999999999999983 0 0 -0 -1 
1 -5.9999999999999991 3.4641016151377571 0 1 -3.8459253727671271e-16 0 -3.8459253727671271e-16 -1 0 0 -0 -1 
1 -6.0000000000000018 -3.4641016151377531 0 0.50000000000000022 0.8660254037844386 -0 0.8660254037844386 -0.50000000000000022 0 0 -0 -1 
1 -1.2726902864698882e-15 -6.9282032302755097 0 -0.49999999999999972 0.86602540378443882 0 0.86602540378443882 0.49999999999999972 0 0 0 -1 
1 5.9999999999999982 -3.4641016151377579 0 -1 3.8459253727671262e-16 0 3.8459253727671262e-16 1 0 0 0 -1 
1 6.0000000000000009 3.4641016151377544 0 -0.50000000000000011 -0.86602540378443871 0 -0.86602540378443871 0.50000000000000011 0 -0 0 -1 
1 -5.1279004970228359e-16 -2.9912752899299878e-16 0 0 0 1 1 0 -0 -0 1 0 
Triangulations 0

TShapes 58
Ve
1e-07
10 -2.44929359829471e-15 16
0 0

0101101
*
Ed
 1e-07 1 1 0
1  1 0 0 6.28318530717959
2  1 1 0 0 6.28318530717959
2  2 2 0 0 6.28318530717959
0

0101000
+58 0 -58 0 *
Ve
1e-07
10 -2.44929359829471e-15 0
0 0

0101101
*
Ed
 1e-07 1 1 0
1  2 0 0 16
3  3 4CN 1 0 0 16
0

0101000
-58 0 +56 0 *
Ed
 1e-07 1 1 0
1  3 0 0 6.28318530717959
2  5 1 0 0 6.28318530717959
2  6 3 0 0 6.28318530717959
0

0101000
+56 0 -56 0 *
Wi

0101100
-57 0 +55 0 +54 0 -55 0 *
Fa
0  1e-07 1 0

0111000
+53 0 *
Wi

0101100
+57 0 *
Ve
6.00000000993014e-07
-6 3.46410161513776 16
0 0

0101101
*
Ve
6.00000001835944e-07
4.24230095489963e-16 6.92820323027551 16
0 0

0101101
*
Ed
 6e-07 1 1 0
1  4 0 -5.19615242270663 1.73205080756888
2  7 2 0 -5.19615242270663 1.73205080756888
2  8 4 2 -5.19615242270663 1.73205080756888
0

0101000
+50 0 -49 0 *
Ve
6.00000000993014e-07
-6 -3.46410161513775 16
0 0

0101101
*
Ed
 6e-07 1 1 0
1  5 0 -5.19615242270663 1.73205080756888
2  9 2 0 -5.19615242270663 1.73205080756888
2  10 5 2 -5.19615242270663 1.73205080756888
0

0101000
+47 0 -50 0 *
Ve
6.00000001551967e-07
-1.27269028646989e-15 -6.92820323027551 16
0 0

0101101
*
Ed
 6e-07 1 1 0
1  6 0 -5.19615242270663 1.73205080756888
2  11 2 0 -5.19615242270663 1.73205080756888
2  12 6 2 -5.19615242270663 1.73205080756888
0

0101000
+45 0 -47 0 *
Ve
6.00000000444089e-07
6 -3.46410161513776 16
0 0

0101101
*
Ed
 6e-07 1 1 0
1  7 0 -5.19615242270663 1.73205080756888
2  13 2 0 -5.19615242270663 1.73205080756888
2  14 7 2 -5.19615242270663 1.73205080756888
0

0101000
+43 0 -45 0 *
Ve
6.00000001256074e-07
6 3.46410161513775 16
0 0

0101101
*
Ed
 6e-07 1 1 0
1  8 0 -5.19615242270663 1.73205080756888
2  15 2 0 -5.19615242270663 1.73205080756888
2  16 8 2 -5.19615242270663 1.73205080756888
0

0101000
+41 0 -43 0 *
Ed
 6e-07 1 1 0
1  9 0 -5.19615242270663 1.73205080756888
2  17 2 0 -5.19615242270663 1.73205080756888
2  18 9 2 -5.19615242270663 1.73205080756888
0

0101000
+49 0 -41 0 *
Wi

0101100
+48 0 +46 0 +44 0 +42 0 +40 0 +39 0 *
Fa
0  1e-07 2 0

0101000
+51 0 +38 0 *
Wi

0101100
-54 0 *
Fa
0  1e-07 3 0

0111000
-36 0 *
Ve
1e-07
4.24230095489963e-16 6.92820323027551 0
0 0

0101101
*
Ve
1e-07
-6 3.46410161513776 0
0 0

0101101
*
Ed
 1e-07 1 1 0
1  10 0 0 6.92820323027551
2  19 4 0 0 6.92820323027551
2  20 4 4 0 6.92820323027551
2  21 10 0 0 6.92820323027551
0

0101000
+34 0 -33 0 *
Ed
 1e-07 1 1 0
1  11 0 0 8.2
2  22 4 0 0 8.2
2  23 5 0 0 8.2
0

0101000
+33 0 -50 5 *
Ed
 1e-07 1 1 0
1  12 0 0 8.2
2  24 9 0 0 8.2
2  25 4 0 0 8.2
0

0101000
+34 0 -49 5 *
Wi

0101100
-32 2 -31 2 -48 0 +30 2 *
Fa
0  1e-07 4 2

0101000
+29 0 *
Ve
1e-07
-6 -3.46410161513775 0
0 0

0101101
*
Ed
 1e-07 1 1 0
1  13 0 0 6.92820323027551
2  26 5 0 0 6.92820323027551
2  27 5 4 0 6.92820323027551
2  28 10 0 0 6.92820323027551
0

0101000
+33 0 -27 0 *
Ed
 1e-07 1 1 0
1  14 0 0 8.2
2  29 5 0 0 8.2
2  30 6 0 0 8.2
0

0101000
+27 0 -47 5 *
Wi

0101100
-26 2 -25 2 -46 0 +31 2 *
Fa
0  1e-07 5 2

0101000
+24 0 *
Ve
1e-07
-1.27269028646989e-15 -6.92820323027551 0
0 0

0101101
*
Ed
 1e-07 1 1 0
1  15 0 0 6.92820323027551
2  31 6 0 0 6.92820323027551
2  32 6 4 0 6.92820323027551
2  33 10 0 0 6.92820323027551
0

0101000
+27 0 -22 0 *
Ed
 1e-07 1 1 0
1  16 0 0 8.2
2  34 6 0 0 8.2
2  35 7 0 0 8.2
0

0101000
+22 0 -45 5 *
Wi

0101100
-21 2 -20 2 -44 0 +25 2 *
Fa
0  1e-07 6 2

0101000
+19 0 *
Ve
1e-07
6 -3.46410161513776 0
0 0

0101101
*
Ed
 1e-07 1 1 0
1  17 0 0 6.92820323027551
2  36 7 0 0 6.92820323027551
2  37 7 4 0 6.92820323027551
2  38 10 0 0 6.92820323027551
0

0101000
+22 0 -17 0 *
Ed
 1e-07 1 1 0
1  18 0 0 8.2
2  39 7 0 0 8.2
2  40 8 0 0 8.2
0

0101000
+17 0 -43 5 *
Wi

0101100
-16 2 -15 2 -42 0 +20 2 *
Fa
0  1e-07 7 2

0101000
+14 0 *
Ve
1e-07
6 3.46410161513775 0
0 0

0101101
*
Ed
 1e-07 1 1 0
1  19 0 0 6.92820323027551
2  41 8 0 0 6.92820323027551
2  42 8 4 0 6.92820323027551
2  43 10 0 0 6.92820323027551
0

0101000
+17 0 -12 0 *
Ed
 1e-07 1 1 0
1  20 0 0 8.2
2  44 9 0 0 8.2
2  45 8 0 0 8.2
0

0101000
+12 0 -41 5 *
Wi

0101100
-11 2 -10 2 -40 0 +15 2 *
Fa
0  1e-07 8 2

0101000
+9 0 *
Ed
 1e-07 1 1 0
1  21 0 0 6.92820323027551
2  46 9 0 0 6.92820323027551
2  47 9 4 0 6.92820323027551
2  48 10 0 0 6.92820323027551
0

0101000
+12 0 -34 0 *
Wi

0101100
-7 2 -30 2 -39 0 +10 2 *
Fa
0  1e-07 9 2

0101000
+6 0 *
Wi

0101100
+7 0 +32 0 +26 0 +21 0 +16 0 +11 0 *
Fa
0  1e-07 10 0

0101000
+4 0 *
Sh

0101100
+52 0 +37 0 -35 0 +28 0 +23 0 +18 0 +13 0 +8 0 +5 0 +3 2 
*
So

0100000
+2 0 *

+1 1 