DBRep_DrawableShape

CASCADE Topology V3, (c) Open Cascade
Locations 3
1
              1               0               0               0 
              0               1               0               0 
              0               0               1 -8.83429915783858 
1
              1               0               0               0 
              0               1               0               0 
              0               0               1               6 
2  2 -1 0
Curve2ds 30
1 0 0 0 -1 
1 6.9282032302755123 0 0 -1 
1 6.9282032302755105 0 0 -1 
1 0 0 0 -1 
1 0 0 1 0 
1 0 -6 1 0 
1 6.0000000000000018 3.4641016151377548 -0.86602540378443871 0.50000000000000011 
1 6.928203230275507 0 0 -1 
1 0 0 0 -1 
1 0 0 1 0 
1 0 -6 1 0 
1 9.3702014519224635e-16 6.9282032302755097 -0.86602540378443871 -0.49999999999999983 
1 6.9282032302755105 0 0 -1 
1 0 0 0 -1 
1 0 0 1 0 
1 0 -6 1 0 
1 -5.9999999999999982 3.4641016151377575 -3.8459253727671271e-16 -1 
1 6.9282032302755105 0 0 -1 
1 0 0 0 -1 
1 0 0 1 0 
1 0 -6 1 0 
1 -6.0000000000000009 -3.4641016151377526 0.8660254037844386 -0.50000000000000022 
1 6.928203230275507 0 0 -1 
1 0 0 0 -1 
1 0 0 1 0 
1 0 -6 1 0 
1 -7.5990023676760461e-16 -6.9282032302755097 0.86602540378443882 0.49999999999999972 
1 0 0 1 0 
1 0 -6 1 0 
1 5.9999999999999991 -3.4641016151377575 3.8459253727671262e-16 1 
Curves 12
1 6.0000000000000009 3.4641016151377544 0 0 0 1 
1 4.2423009548996277e-16 6.9282032302755097 0 0 0 1 
1 6.0000000000000009 3.4641016151377544 0 -0.8660254037844386 0.5 0 
1 -5.9999999999999991 3.4641016151377571 0 0 0 1 
1 4.2423009548996277e-16 6.9282032302755097 0 -0.86602540378443871 -0.49999999999999983 0 
1 -6.0000000000000018 -3.4641016151377531 0 0 0 1 
1 -5.9999999999999991 3.4641016151377571 0 -3.8459253727671271e-16 -1 0 
1 -1.2726902864698882e-15 -6.9282032302755097 0 0 0 1 
1 -6.0000000000000018 -3.4641016151377531 0 0.86602540378443849 -0.50000000000000011 0 
1 5.9999999999999982 -3.4641016151377579 0 0 0 1 
1 -1.2726902864698882e-15 -6.9282032302755097 0 0.86602540378443882 0.49999999999999972 0 
1 5.9999999999999982 -3.4641016151377579 0 3.8459253727671262e-16 1 0 
Polygon3D 0
PolygonOnTriangulations 0
Surfaces 7
1 6.0000000000000009 3.4641016151377544 0 -0.50000000000000011 -0.86602540378443871 0 -0.86602540378443871 0.50000000000000011 0 -0 0 -1 
1 5.9999999999999982 -3.4641016151377579 0 -1 3.8459253727671262e-16 0 3.8459253727671262e-16 1 0 0 0 -1 
1 4.2423009548996277e-16 6.9282032302755097 0 0.49999999999999983 -0.86602540378443871 0 -0.86602540378443871 -0.49999999999999983 0 0 -0 -1 
1 -5.1279004970228359e-16 -2.9912752899299878e-16 0 0 0 1 1 0 -0 -0 1 0 
1 -5.9999999999999991 3.4641016151377571 0 1 -3.8459253727671271e-16 0 -3.8459253727671271e-16 -1 0 0 -0 -1 
1 -6.0000000000000018 -3.4641016151377531 0 0.50000000000000022 0.8660254037844386 -0 0.8660254037844386 -0.50000000000000022 0 0 -0 -1 
1 -1.2726902864698882e-15 -6.9282032302755097 0 -0.49999999999999972 0.86602540378443882 0 0.86602540378443882 0.49999999999999972 0 0 0 -1 
Triangulations 0

TShapes 34
Ve
1e-07
6 3.46410161513775 0
0 0

0101101
*
Ed
 1e-07 1 1 0
1  1 0 0 6
2  1 1 0 0 6
2  2 2 0 0 6
0

0101000
+34 0 -34 2 *
Ve
1e-07
4.24230095489963e-16 6.92820323027551 0
0 0

0101101
*
Ed
 1e-07 1 1 0
1  2 0 0 6
2  3 1 0 0 6
2  4 3 0 0 6
0

0101000
+32 0 -32 2 *
Ed
 1e-07 1 1 0
1  3 0 0 6.92820323027551
2  5 1 0 0 6.92820323027551
2  6 1 3 0 6.92820323027551
2  7 4 0 0 6.92820323027551
0

0101000
+34 0 -32 0 *
Wi

0101100
+33 0 -31 0 -30 0 +30 2 *
Fa
0  1e-07 1 0

0101000
+29 0 *
Ve
1e-07
-6 3.46410161513776 0
0 0

0101101
*
Ed
 1e-07 1 1 0
1  4 0 0 6
2  8 3 0 0 6
2  9 5 0 0 6
0

0101000
+27 0 -27 2 *
Ed
 1e-07 1 1 0
1  5 0 0 6.92820323027551
2  10 3 0 0 6.92820323027551
2  11 3 3 0 6.92820323027551
2  12 4 0 0 6.92820323027551
0

0101000
+32 0 -27 0 *
Wi

0101100
+31 0 -26 0 -25 0 +25 2 *
Fa
0  1e-07 3 0

0101000
+24 0 *
Ve
1e-07
-6 -3.46410161513775 0
0 0

0101101
*
Ed
 1e-07 1 1 0
1  6 0 0 6
2  13 5 0 0 6
2  14 6 0 0 6
0

0101000
+22 0 -22 2 *
Ed
 1e-07 1 1 0
1  7 0 0 6.92820323027551
2  15 5 0 0 6.92820323027551
2  16 5 3 0 6.92820323027551
2  17 4 0 0 6.92820323027551
0

0101000
+27 0 -22 0 *
Wi

0101100
+26 0 -21 0 -20 0 +20 2 *
Fa
0  1e-07 5 0

0101000
+19 0 *
Ve
1e-07
-1.27269028646989e-15 -6.92820323027551 0
0 0

0101101
*
Ed
 1e-07 1 1 0
1  8 0 0 6
2  18 6 0 0 6
2  19 7 0 0 6
0

0101000
+17 0 -17 2 *
Ed
 1e-07 1 1 0
1  9 0 0 6.92820323027551
2  20 6 0 0 6.92820323027551
2  21 6 3 0 6.92820323027551
2  22 4 0 0 6.92820323027551
0

0101000
+22 0 -17 0 *
Wi

0101100
+21 0 -16 0 -15 0 +15 2 *
Fa
0  1e-07 6 0

0101000
+14 0 *
Ve
1e-07
6 -3.46410161513776 0
0 0

0101101
*
Ed
 1e-07 1 1 0
1  10 0 0 6
2  23 7 0 0 6
2  24 2 0 0 6
0

0101000
+12 0 -12 2 *
Ed
 1e-07 1 1 0
1  11 0 0 6.92820323027551
2  25 7 0 0 6.92820323027551
2  26 7 3 0 6.92820323027551
2  27 4 0 0 6.92820323027551
0

0101000
+17 0 -12 0 *
Wi

0101100
+16 0 -11 0 -10 0 +10 2 *
Fa
0  1e-07 7 0

0101000
+9 0 *
Ed
 1e-07 1 1 0
1  12 0 0 6.92820323027551
2  28 2 0 0 6.92820323027551
2  29 2 3 0 6.92820323027551
2  30 4 0 0 6.92820323027551
0

0101000
+12 0 -34 0 *
Wi

0101100
+11 0 -33 0 -7 0 +7 2 *
Fa
0  1e-07 2 0

0101000
+6 0 *
Wi

0101100
+30 0 +25 0 +20 0 +15 0 +10 0 +7 0 *
Fa
0  1e-07 4 0

0101000
+4 0 *
Sh

0101100
+28 0 +23 0 +18 0 +13 0 +8 0 +5 0 +3 0 -3 2 *
So

0100000
-2 0 *

+1 1 