DBRep_DrawableShape

CASCADE Topology V3, (c) Open Cascade
Locations 2
1
              1               0               0               0 
              0               1               0               0 
              0               0               1               8 
2  1 -1 0
Curve2ds 30
1 0 0 0 -1 
1 9.8149545762236396 0 0 -1 
1 0 0 0 -1 
1 8.5 4.907477288111818 -0.86602540378443871 0.50000000000000011 
1 0 0 1 0 
1 0 -8 1 0 
1 9.8149545762236343 0 0 -1 
1 8.4999999999999964 -4.9074772881118234 3.6196944684867073e-16 1 
1 9.8149545762236343 0 0 -1 
1 1.324931528974789e-15 9.8149545762236379 -0.86602540378443882 -0.49999999999999983 
1 0 0 1 0 
1 0 -8 1 0 
1 -1.079039012135e-15 -9.8149545762236379 0.86602540378443882 0.49999999999999972 
1 0 0 1 0 
1 0 -8 1 0 
1 -8.4999999999999982 4.9074772881118225 -3.6196944684867087e-16 -1 
1 -8.5000000000000018 -4.9074772881118163 0.8660254037844386 -0.50000000000000033 
1 0 0 1 0 
1 0 -8 1 0 
1 0 0 1 0 
2 0 0 1 0 -0 1 5.0999999999999996
2 7.2393889369734165e-16 -6.0328241141445142e-17 1 0 -0 1 5.0999999999999996
1 0 8 1 0 
2 0 0 1 0 -0 1 5.0999999999999996
2 7.2393889369734165e-16 -6.0328241141445142e-17 1 0 -0 1 5.0999999999999996
1 9.8149545762236396 0 0 -1 
1 0 0 0 -1 
1 0 0 0 -1 
1 6.2831853071795862 -0 0 1 
1 0 -0 0 1 
Curves 15
1 8.5 4.907477288111818 0 0 0 1 
1 6.0099263527744726e-16 9.8149545762236379 0 0 0 1 
1 8.5 4.907477288111818 0 -0.86602540378443871 0.50000000000000011 0 
1 8.4999999999999964 -4.9074772881118234 0 0 0 1 
1 8.4999999999999964 -4.9074772881118234 0 3.6196944684867073e-16 1 0 
1 -8.4999999999999982 4.9074772881118225 0 0 0 1 
1 6.0099263527744726e-16 9.8149545762236379 0 -0.86602540378443882 -0.49999999999999983 0 
1 -1.8029779058323417e-15 -9.8149545762236379 0 0.86602540378443882 0.49999999999999972 0 
1 -8.4999999999999982 4.9074772881118225 0 -3.6196944684867087e-16 -1 0 
1 -8.5000000000000018 -4.9074772881118163 0 0.86602540378443849 -0.50000000000000022 0 
2 0 0 0 0 0 1 1 0 -0 -0 1 0 5.0999999999999996
2 0 0 8 0 0 1 1 0 -0 -0 1 0 5.0999999999999996
1 -1.8029779058323417e-15 -9.8149545762236379 0 0 0 1 
1 -8.5000000000000018 -4.9074772881118163 0 0 0 1 
1 5.0999999999999996 -1.2491397351303002e-15 0 0 0 1 
Polygon3D 0
PolygonOnTriangulations 0
Surfaces 10
1 8.5 4.907477288111818 0 -0.50000000000000011 -0.86602540378443871 0 -0.86602540378443871 0.50000000000000011 0 -0 0 -1 
1 6.0099263527744726e-16 9.8149545762236379 0 0.49999999999999983 -0.86602540378443882 0 -0.86602540378443882 -0.49999999999999983 0 0 -0 -1 
1 -7.2393889369734165e-16 6.0328241141445142e-17 0 0 0 1 1 0 -0 -0 1 0 
1 8.4999999999999964 -4.9074772881118234 0 -1 3.6196944684867073e-16 0 3.6196944684867073e-16 1 0 0 0 -1 
1 -1.8029779058323417e-15 -9.8149545762236379 0 -0.49999999999999972 0.86602540378443882 0 0.86602540378443882 0.49999999999999972 0 0 0 -1 
1 -8.5000000000000018 -4.9074772881118163 0 0.50000000000000033 0.8660254037844386 -0 0.86602540378443849 -0.50000000000000022 0 0 -0 -1 
2 0 0 0 0 0 1 1 0 -0 -0 1 0 5.0999999999999996
1 0 0 0 0 0 1 1 0 -0 -0 1 0 
1 0 0 8 0 0 1 1 0 -0 -0 1 0 
1 -8.4999999999999982 4.9074772881118225 0 1 -3.6196944684867087e-16 0 -3.6196944684867087e-16 -1 0 0 -0 -1 
Triangulations 0

TShapes 45
Ve
1e-07
8.5 4.90747728811182 0
0 0

0101101
*
Ed
 1e-07 1 1 0
1  1 0 0 8
2  1 1 0 0 8
0

0101000
+45 0 -45 1 *
Ve
1e-07
6.00992635277447e-16 9.81495457622364 0
0 0

0101101
*
Ed
 1e-07 1 1 0
1  2 0 0 8
2  2 1 0 0 8
2  3 2 0 0 8
0

0101000
+43 0 -43 1 *
Ed
 1e-07 1 1 0
1  3 0 0 9.81495457622364
2  4 3 0 0 9.81495457622364
2  5 1 0 0 9.81495457622364
2  6 1 2 0 9.81495457622364
0

0101000
+45 0 -43 0 *
Wi

0101100
+44 0 -42 0 -41 0 +41 1 *
Fa
0  1e-07 1 0

0101000
+40 0 *
Ve
1e-07
8.5 -4.90747728811182 0
0 0

0101101
*
Ed
 1e-07 1 1 0
1  4 0 0 8
2  7 5 0 0 8
0

0101000
+38 0 -38 1 *
Ed
 1e-07 1 1 0
1  5 0 0 9.81495457622364
2  8 3 0 0 9.81495457622364
0

0101000
+38 0 -45 0 *
Wi

0101100
+37 0 -44 0 -36 0 +36 1 *
Fa
0  1e-07 4 0

0101000
+35 0 *
Ve
1e-07
-8.5 4.90747728811182 0
0 0

0101101
*
Ed
 1e-07 1 1 0
1  6 0 0 8
2  9 2 0 0 8
0

0101000
+33 0 -33 1 *
Ed
 1e-07 1 1 0
1  7 0 0 9.81495457622363
2  10 3 0 0 9.81495457622363
2  11 2 0 0 9.81495457622363
2  12 2 2 0 9.81495457622363
0

0101000
+43 0 -33 0 *
Wi

0101100
+42 0 -32 0 -31 0 +31 1 *
Fa
0  1e-07 2 0

0101000
+30 0 *
Ve
1e-07
-1.80297790583234e-15 -9.81495457622364 0
0 0

0101101
*
Ed
 1e-07 1 1 0
1  8 0 0 9.81495457622363
2  13 3 0 0 9.81495457622363
2  14 5 0 0 9.81495457622363
2  15 5 2 0 9.81495457622363
0

0101000
+28 0 -38 0 *
Ve
1e-07
-8.5 -4.90747728811182 0
0 0

0101101
*
Ed
 1e-07 1 1 0
1  9 0 0 9.81495457622364
2  16 3 0 0 9.81495457622364
0

0101000
+33 0 -26 0 *
Ed
 1e-07 1 1 0
1  10 0 0 9.81495457622364
2  17 3 0 0 9.81495457622364
2  18 6 0 0 9.81495457622364
2  19 6 2 0 9.81495457622364
0

0101000
+26 0 -28 0 *
Wi

0101100
+41 0 +36 0 +31 0 +27 0 +25 0 +24 0 *
Ve
1e-07
5.1 -1.2491397351303e-15 0
0 0

0101101
*
Ed
 1e-07 1 1 0
1  11 0 0 6.28318530717959
2  20 7 0 0 6.28318530717959
2  21 8 0 0 6.28318530717959
2  22 3 0 0 6.28318530717959
0

0101000
+22 0 -22 0 *
Wi

0101100
-21 0 *
Fa
0  1e-07 3 0

0101000
+23 0 +20 0 *
Wi

0101100
+41 1 +36 1 +31 1 +27 1 +25 1 +24 1 *
Ve
1e-07
5.1 -1.2491397351303e-15 8
0 0

0101101
*
Ed
 1e-07 1 1 0
1  12 0 0 6.28318530717959
2  23 7 0 0 6.28318530717959
2  24 9 0 0 6.28318530717959
2  25 3 1 0 6.28318530717959
0

0101000
+17 0 -17 0 *
Wi

0101100
-16 0 *
Fa
0  1e-07 3 1

0101000
+18 0 +15 0 *
Ed
 1e-07 1 1 0
1  13 0 0 8
2  26 6 0 0 8
2  27 5 0 0 8
0

0101000
+28 0 -28 1 *
Wi

0101100
+13 0 -37 0 -27 0 +27 1 *
Fa
0  1e-07 5 0

0101000
+12 0 *
Ed
 1e-07 1 1 0
1  14 0 0 8
2  28 6 0 0 8
0

0101000
+26 0 -26 1 *
Wi

0101100
+32 0 -10 0 -25 0 +25 1 *
Fa
0  1e-07 10 0

0101000
+9 0 *
Wi

0101100
+10 0 -13 0 -24 0 +24 1 *
Fa
0  1e-07 6 0

0101000
+7 0 *
Ed
 1e-07 1 1 0
1  15 0 0 8
3  29 30CN 7 0 0 8
0

0101000
-17 0 +22 0 *
Wi

0101100
-16 0 +5 0 +21 0 -5 0 *
Fa
0  1e-07 7 0

0111000
+4 0 *
Sh

0101100
-39 0 -34 0 -29 0 -19 0 +14 0 -11 0 -8 0 -6 0 -3 0 *
So

0100000
+2 0 *

+1 0 